<svg width="266" height="276" viewBox="0 0 266 276" fill="none" xmlns="http://www.w3.org/2000/svg">
<path d="M11.0209 258V249.54H11.8009L17.2249 256.74H16.9489V249.54H17.8729V258H17.1049L11.6809 250.8H11.9449V258H11.0209ZM22.1697 258.108C21.6337 258.108 21.1657 257.984 20.7657 257.736C20.3657 257.48 20.0537 257.12 19.8297 256.656C19.6137 256.192 19.5057 255.636 19.5057 254.988C19.5057 254.332 19.6137 253.772 19.8297 253.308C20.0537 252.844 20.3657 252.488 20.7657 252.24C21.1657 251.992 21.6337 251.868 22.1697 251.868C22.7137 251.868 23.1817 252.008 23.5737 252.288C23.9737 252.56 24.2377 252.932 24.3657 253.404H24.2217L24.3537 251.976H25.2897C25.2657 252.208 25.2417 252.444 25.2177 252.684C25.2017 252.916 25.1937 253.144 25.1937 253.368V258H24.2217V256.584H24.3537C24.2257 257.056 23.9617 257.428 23.5617 257.7C23.1617 257.972 22.6977 258.108 22.1697 258.108ZM22.3617 257.316C22.9377 257.316 23.3937 257.12 23.7297 256.728C24.0657 256.328 24.2337 255.748 24.2337 254.988C24.2337 254.22 24.0657 253.64 23.7297 253.248C23.3937 252.848 22.9377 252.648 22.3617 252.648C21.7937 252.648 21.3377 252.848 20.9937 253.248C20.6577 253.64 20.4897 254.22 20.4897 254.988C20.4897 255.748 20.6577 256.328 20.9937 256.728C21.3377 257.12 21.7937 257.316 22.3617 257.316ZM20.8497 250.92L20.2977 250.884C20.3377 250.372 20.4737 249.98 20.7057 249.708C20.9377 249.428 21.2297 249.288 21.5817 249.288C21.7577 249.288 21.9177 249.328 22.0617 249.408C22.2137 249.488 22.3857 249.612 22.5777 249.78C22.7537 249.94 22.8937 250.052 22.9977 250.116C23.1097 250.172 23.2177 250.2 23.3217 250.2C23.7297 250.2 23.9777 249.884 24.0657 249.252L24.6177 249.288C24.5777 249.8 24.4417 250.196 24.2097 250.476C23.9857 250.748 23.6977 250.884 23.3457 250.884C23.1777 250.884 23.0177 250.844 22.8657 250.764C22.7137 250.684 22.5377 250.556 22.3377 250.38C22.1697 250.228 22.0297 250.124 21.9177 250.068C21.8137 250.004 21.7057 249.972 21.5937 249.972C21.3857 249.972 21.2177 250.056 21.0897 250.224C20.9697 250.384 20.8897 250.616 20.8497 250.92ZM29.545 258.108C28.969 258.108 28.465 257.984 28.033 257.736C27.609 257.48 27.281 257.12 27.049 256.656C26.817 256.184 26.701 255.628 26.701 254.988C26.701 254.34 26.817 253.784 27.049 253.32C27.281 252.856 27.609 252.5 28.033 252.252C28.465 251.996 28.969 251.868 29.545 251.868C30.129 251.868 30.633 251.996 31.057 252.252C31.489 252.5 31.821 252.856 32.053 253.32C32.293 253.784 32.413 254.34 32.413 254.988C32.413 255.628 32.293 256.184 32.053 256.656C31.821 257.12 31.489 257.48 31.057 257.736C30.633 257.984 30.129 258.108 29.545 258.108ZM29.545 257.316C30.121 257.316 30.577 257.12 30.913 256.728C31.249 256.328 31.417 255.748 31.417 254.988C31.417 254.22 31.245 253.64 30.901 253.248C30.565 252.848 30.113 252.648 29.545 252.648C28.977 252.648 28.525 252.848 28.189 253.248C27.853 253.64 27.685 254.22 27.685 254.988C27.685 255.748 27.853 256.328 28.189 256.728C28.525 257.12 28.977 257.316 29.545 257.316ZM37.0574 258V249.168H38.0294V253.308H37.8734C38.0414 252.836 38.3214 252.48 38.7134 252.24C39.1134 251.992 39.5734 251.868 40.0934 251.868C40.8134 251.868 41.3494 252.064 41.7014 252.456C42.0534 252.84 42.2294 253.424 42.2294 254.208V258H41.2574V254.268C41.2574 253.708 41.1454 253.3 40.9214 253.044C40.7054 252.788 40.3534 252.66 39.8654 252.66C39.3054 252.66 38.8574 252.832 38.5214 253.176C38.1934 253.52 38.0294 253.972 38.0294 254.532V258H37.0574ZM46.3807 258.108C45.8447 258.108 45.3767 257.984 44.9767 257.736C44.5767 257.48 44.2647 257.12 44.0407 256.656C43.8247 256.192 43.7167 255.636 43.7167 254.988C43.7167 254.332 43.8247 253.772 44.0407 253.308C44.2647 252.844 44.5767 252.488 44.9767 252.24C45.3767 251.992 45.8447 251.868 46.3807 251.868C46.9247 251.868 47.3927 252.008 47.7847 252.288C48.1847 252.56 48.4487 252.932 48.5767 253.404H48.4327L48.5647 251.976H49.5007C49.4767 252.208 49.4527 252.444 49.4287 252.684C49.4127 252.916 49.4047 253.144 49.4047 253.368V258H48.4327V256.584H48.5647C48.4367 257.056 48.1727 257.428 47.7727 257.7C47.3727 257.972 46.9087 258.108 46.3807 258.108ZM46.5727 257.316C47.1487 257.316 47.6047 257.12 47.9407 256.728C48.2767 256.328 48.4447 255.748 48.4447 254.988C48.4447 254.22 48.2767 253.64 47.9407 253.248C47.6047 252.848 47.1487 252.648 46.5727 252.648C46.0047 252.648 45.5487 252.848 45.2047 253.248C44.8687 253.64 44.7007 254.22 44.7007 254.988C44.7007 255.748 44.8687 256.328 45.2047 256.728C45.5487 257.12 46.0047 257.316 46.5727 257.316ZM46.3207 251.388L47.5567 248.964H48.6007L47.0167 251.388H46.3207ZM56.5369 258.108C55.8249 258.108 55.2849 257.912 54.9169 257.52C54.5569 257.128 54.3769 256.528 54.3769 255.72V251.976H55.3489V255.696C55.3489 256.248 55.4609 256.656 55.6849 256.92C55.9089 257.176 56.2569 257.304 56.7289 257.304C57.2569 257.304 57.6809 257.132 58.0009 256.788C58.3209 256.444 58.4809 255.984 58.4809 255.408V251.976H59.4529V258H58.5049V256.644H58.6609C58.4929 257.108 58.2209 257.468 57.8449 257.724C57.4769 257.98 57.0409 258.108 56.5369 258.108ZM63.3427 258.108C62.8627 258.108 62.4147 258.044 61.9987 257.916C61.5827 257.78 61.2387 257.592 60.9667 257.352L61.3027 256.668C61.5987 256.9 61.9187 257.072 62.2627 257.184C62.6147 257.296 62.9787 257.352 63.3547 257.352C63.8347 257.352 64.1947 257.268 64.4347 257.1C64.6827 256.924 64.8067 256.684 64.8067 256.38C64.8067 256.148 64.7267 255.964 64.5667 255.828C64.4147 255.684 64.1627 255.572 63.8107 255.492L62.6947 255.264C62.1827 255.152 61.7987 254.964 61.5427 254.7C61.2867 254.428 61.1587 254.084 61.1587 253.668C61.1587 253.316 61.2507 253.008 61.4347 252.744C61.6187 252.472 61.8867 252.26 62.2387 252.108C62.5907 251.948 63.0027 251.868 63.4747 251.868C63.9147 251.868 64.3187 251.936 64.6867 252.072C65.0627 252.2 65.3747 252.388 65.6227 252.636L65.2747 253.308C65.0347 253.076 64.7587 252.904 64.4467 252.792C64.1427 252.672 63.8267 252.612 63.4987 252.612C63.0267 252.612 62.6707 252.708 62.4307 252.9C62.1987 253.084 62.0827 253.328 62.0827 253.632C62.0827 253.864 62.1547 254.056 62.2987 254.208C62.4507 254.352 62.6827 254.46 62.9947 254.532L64.1107 254.76C64.6547 254.88 65.0587 255.068 65.3227 255.324C65.5947 255.572 65.7307 255.908 65.7307 256.332C65.7307 256.692 65.6307 257.008 65.4307 257.28C65.2307 257.544 64.9507 257.748 64.5907 257.892C64.2387 258.036 63.8227 258.108 63.3427 258.108ZM69.4158 258.108C68.7038 258.108 68.1638 257.912 67.7958 257.52C67.4358 257.128 67.2558 256.528 67.2558 255.72V251.976H68.2278V255.696C68.2278 256.248 68.3398 256.656 68.5638 256.92C68.7878 257.176 69.1358 257.304 69.6078 257.304C70.1358 257.304 70.5598 257.132 70.8798 256.788C71.1998 256.444 71.3598 255.984 71.3598 255.408V251.976H72.3318V258H71.3838V256.644H71.5398C71.3718 257.108 71.0998 257.468 70.7238 257.724C70.3558 257.98 69.9198 258.108 69.4158 258.108ZM76.5096 258.108C75.9736 258.108 75.5056 257.984 75.1056 257.736C74.7056 257.48 74.3936 257.12 74.1696 256.656C73.9536 256.192 73.8456 255.636 73.8456 254.988C73.8456 254.332 73.9536 253.772 74.1696 253.308C74.3936 252.844 74.7056 252.488 75.1056 252.24C75.5056 251.992 75.9736 251.868 76.5096 251.868C77.0536 251.868 77.5216 252.008 77.9136 252.288C78.3136 252.56 78.5776 252.932 78.7056 253.404H78.5616L78.6936 251.976H79.6296C79.6056 252.208 79.5816 252.444 79.5576 252.684C79.5416 252.916 79.5336 253.144 79.5336 253.368V258H78.5616V256.584H78.6936C78.5656 257.056 78.3016 257.428 77.9016 257.7C77.5016 257.972 77.0376 258.108 76.5096 258.108ZM76.7016 257.316C77.2776 257.316 77.7336 257.12 78.0696 256.728C78.4056 256.328 78.5736 255.748 78.5736 254.988C78.5736 254.22 78.4056 253.64 78.0696 253.248C77.7336 252.848 77.2776 252.648 76.7016 252.648C76.1336 252.648 75.6776 252.848 75.3336 253.248C74.9976 253.64 74.8296 254.22 74.8296 254.988C74.8296 255.748 74.9976 256.328 75.3336 256.728C75.6776 257.12 76.1336 257.316 76.7016 257.316ZM76.4496 251.388L77.6856 248.964H78.7296L77.1456 251.388H76.4496ZM81.3889 258V253.428C81.3889 253.188 81.3809 252.944 81.3649 252.696C81.3569 252.448 81.3409 252.208 81.3169 251.976H82.2529L82.3729 253.44L82.2049 253.452C82.2849 253.092 82.4249 252.796 82.6249 252.564C82.8249 252.332 83.0609 252.16 83.3329 252.048C83.6049 251.928 83.8889 251.868 84.1849 251.868C84.3049 251.868 84.4089 251.872 84.4969 251.88C84.5929 251.888 84.6809 251.908 84.7609 251.94L84.7489 252.804C84.6289 252.764 84.5169 252.74 84.4129 252.732C84.3169 252.716 84.2049 252.708 84.0769 252.708C83.7249 252.708 83.4169 252.792 83.1529 252.96C82.8969 253.128 82.7009 253.344 82.5649 253.608C82.4369 253.872 82.3729 254.152 82.3729 254.448V258H81.3889ZM85.7723 258V251.976H86.7443V258H85.7723ZM85.6523 250.608V249.516H86.8523V250.608H85.6523ZM91.1036 258.108C90.5276 258.108 90.0236 257.984 89.5916 257.736C89.1676 257.48 88.8396 257.12 88.6076 256.656C88.3756 256.184 88.2596 255.628 88.2596 254.988C88.2596 254.34 88.3756 253.784 88.6076 253.32C88.8396 252.856 89.1676 252.5 89.5916 252.252C90.0236 251.996 90.5276 251.868 91.1036 251.868C91.6876 251.868 92.1916 251.996 92.6156 252.252C93.0476 252.5 93.3796 252.856 93.6116 253.32C93.8516 253.784 93.9716 254.34 93.9716 254.988C93.9716 255.628 93.8516 256.184 93.6116 256.656C93.3796 257.12 93.0476 257.48 92.6156 257.736C92.1916 257.984 91.6876 258.108 91.1036 258.108ZM91.1036 257.316C91.6796 257.316 92.1356 257.12 92.4716 256.728C92.8076 256.328 92.9756 255.748 92.9756 254.988C92.9756 254.22 92.8036 253.64 92.4596 253.248C92.1236 252.848 91.6716 252.648 91.1036 252.648C90.5356 252.648 90.0836 252.848 89.7476 253.248C89.4116 253.64 89.2436 254.22 89.2436 254.988C89.2436 255.748 89.4116 256.328 89.7476 256.728C90.0836 257.12 90.5356 257.316 91.1036 257.316ZM97.4911 258.108C97.0111 258.108 96.5631 258.044 96.1471 257.916C95.7311 257.78 95.3871 257.592 95.1151 257.352L95.4511 256.668C95.7471 256.9 96.0671 257.072 96.4111 257.184C96.7631 257.296 97.1271 257.352 97.5031 257.352C97.9831 257.352 98.3431 257.268 98.5831 257.1C98.8311 256.924 98.9551 256.684 98.9551 256.38C98.9551 256.148 98.8751 255.964 98.7151 255.828C98.5631 255.684 98.3111 255.572 97.9591 255.492L96.8431 255.264C96.3311 255.152 95.9471 254.964 95.6911 254.7C95.4351 254.428 95.3071 254.084 95.3071 253.668C95.3071 253.316 95.3991 253.008 95.5831 252.744C95.7671 252.472 96.0351 252.26 96.3871 252.108C96.7391 251.948 97.1511 251.868 97.6231 251.868C98.0631 251.868 98.4671 251.936 98.8351 252.072C99.2111 252.2 99.5231 252.388 99.7711 252.636L99.4231 253.308C99.1831 253.076 98.9071 252.904 98.5951 252.792C98.2911 252.672 97.9751 252.612 97.6471 252.612C97.1751 252.612 96.8191 252.708 96.5791 252.9C96.3471 253.084 96.2311 253.328 96.2311 253.632C96.2311 253.864 96.3031 254.056 96.4471 254.208C96.5991 254.352 96.8311 254.46 97.1431 254.532L98.2591 254.76C98.8031 254.88 99.2071 255.068 99.4711 255.324C99.7431 255.572 99.8791 255.908 99.8791 256.332C99.8791 256.692 99.7791 257.008 99.5791 257.28C99.3791 257.544 99.0991 257.748 98.7391 257.892C98.3871 258.036 97.9711 258.108 97.4911 258.108ZM101.248 258V256.776H102.472V258H101.248ZM111.092 258.108C110.244 258.108 109.524 257.932 108.932 257.58C108.34 257.228 107.884 256.728 107.564 256.08C107.252 255.432 107.096 254.66 107.096 253.764C107.096 252.868 107.252 252.1 107.564 251.46C107.884 250.812 108.34 250.312 108.932 249.96C109.524 249.608 110.244 249.432 111.092 249.432C111.692 249.432 112.228 249.524 112.7 249.708C113.172 249.892 113.584 250.16 113.936 250.512L113.564 251.304C113.18 250.968 112.8 250.724 112.424 250.572C112.048 250.412 111.608 250.332 111.104 250.332C110.136 250.332 109.4 250.632 108.896 251.232C108.392 251.832 108.14 252.676 108.14 253.764C108.14 254.852 108.392 255.7 108.896 256.308C109.4 256.908 110.136 257.208 111.104 257.208C111.608 257.208 112.048 257.132 112.424 256.98C112.8 256.82 113.18 256.568 113.564 256.224L113.936 257.028C113.584 257.372 113.172 257.64 112.7 257.832C112.228 258.016 111.692 258.108 111.092 258.108ZM115.503 258V249.168H116.475V258H115.503ZM118.362 258V251.976H119.334V258H118.362ZM118.242 250.608V249.516H119.442V250.608H118.242ZM125.565 260.592V256.584H125.697C125.569 257.056 125.305 257.428 124.905 257.7C124.505 257.972 124.041 258.108 123.513 258.108C122.977 258.108 122.509 257.984 122.109 257.736C121.709 257.48 121.397 257.12 121.173 256.656C120.957 256.192 120.849 255.636 120.849 254.988C120.849 254.332 120.957 253.772 121.173 253.308C121.397 252.844 121.709 252.488 122.109 252.24C122.509 251.992 122.977 251.868 123.513 251.868C124.057 251.868 124.525 252.008 124.917 252.288C125.317 252.56 125.581 252.932 125.709 253.404H125.565L125.697 251.976H126.633C126.609 252.208 126.585 252.444 126.561 252.684C126.545 252.916 126.537 253.144 126.537 253.368V260.592H125.565ZM123.705 257.316C124.281 257.316 124.737 257.12 125.073 256.728C125.409 256.328 125.577 255.748 125.577 254.988C125.577 254.22 125.409 253.64 125.073 253.248C124.737 252.848 124.281 252.648 123.705 252.648C123.137 252.648 122.681 252.848 122.337 253.248C122.001 253.64 121.833 254.22 121.833 254.988C121.833 255.748 122.001 256.328 122.337 256.728C122.681 257.12 123.137 257.316 123.705 257.316ZM130.541 258.108C129.829 258.108 129.289 257.912 128.921 257.52C128.561 257.128 128.381 256.528 128.381 255.72V251.976H129.353V255.696C129.353 256.248 129.465 256.656 129.689 256.92C129.913 257.176 130.261 257.304 130.733 257.304C131.261 257.304 131.685 257.132 132.005 256.788C132.325 256.444 132.485 255.984 132.485 255.408V251.976H133.457V258H132.509V256.644H132.665C132.497 257.108 132.225 257.468 131.849 257.724C131.481 257.98 131.045 258.108 130.541 258.108ZM138.019 258.108C137.075 258.108 136.331 257.836 135.787 257.292C135.243 256.74 134.971 255.976 134.971 255C134.971 254.368 135.091 253.82 135.331 253.356C135.571 252.884 135.907 252.52 136.339 252.264C136.771 252 137.267 251.868 137.827 251.868C138.379 251.868 138.843 251.984 139.219 252.216C139.595 252.448 139.883 252.78 140.083 253.212C140.283 253.636 140.383 254.14 140.383 254.724V255.084H135.715V254.472H139.747L139.543 254.628C139.543 253.988 139.399 253.488 139.111 253.128C138.823 252.768 138.395 252.588 137.827 252.588C137.227 252.588 136.759 252.8 136.423 253.224C136.087 253.64 135.919 254.204 135.919 254.916V255.024C135.919 255.776 136.103 256.348 136.471 256.74C136.847 257.124 137.371 257.316 138.043 257.316C138.403 257.316 138.739 257.264 139.051 257.16C139.371 257.048 139.675 256.868 139.963 256.62L140.299 257.304C140.035 257.56 139.699 257.76 139.291 257.904C138.891 258.04 138.467 258.108 138.019 258.108ZM144.999 258V253.368C144.999 253.144 144.987 252.916 144.963 252.684C144.947 252.444 144.927 252.208 144.903 251.976H145.839L145.959 253.296H145.815C145.991 252.832 146.271 252.48 146.655 252.24C147.047 251.992 147.499 251.868 148.011 251.868C148.723 251.868 149.259 252.06 149.619 252.444C149.987 252.82 150.171 253.416 150.171 254.232V258H149.199V254.292C149.199 253.724 149.083 253.312 148.851 253.056C148.627 252.792 148.275 252.66 147.795 252.66C147.235 252.66 146.791 252.832 146.463 253.176C146.135 253.52 145.971 253.98 145.971 254.556V258H144.999ZM154.502 258.108C153.926 258.108 153.422 257.984 152.99 257.736C152.566 257.48 152.238 257.12 152.006 256.656C151.774 256.184 151.658 255.628 151.658 254.988C151.658 254.34 151.774 253.784 152.006 253.32C152.238 252.856 152.566 252.5 152.99 252.252C153.422 251.996 153.926 251.868 154.502 251.868C155.086 251.868 155.59 251.996 156.014 252.252C156.446 252.5 156.778 252.856 157.01 253.32C157.25 253.784 157.37 254.34 157.37 254.988C157.37 255.628 157.25 256.184 157.01 256.656C156.778 257.12 156.446 257.48 156.014 257.736C155.59 257.984 155.086 258.108 154.502 258.108ZM154.502 257.316C155.078 257.316 155.534 257.12 155.87 256.728C156.206 256.328 156.374 255.748 156.374 254.988C156.374 254.22 156.202 253.64 155.858 253.248C155.522 252.848 155.07 252.648 154.502 252.648C153.934 252.648 153.482 252.848 153.146 253.248C152.81 253.64 152.642 254.22 152.642 254.988C152.642 255.748 152.81 256.328 153.146 256.728C153.482 257.12 153.934 257.316 154.502 257.316ZM162.014 258V251.976H162.986V258H162.014ZM162.146 251.388L163.382 248.964H164.426L162.842 251.388H162.146ZM167.406 258.108C166.814 258.108 166.298 257.98 165.858 257.724C165.426 257.468 165.09 257.104 164.85 256.632C164.618 256.16 164.502 255.6 164.502 254.952C164.502 254.296 164.622 253.74 164.862 253.284C165.102 252.82 165.438 252.468 165.87 252.228C166.31 251.988 166.822 251.868 167.406 251.868C167.79 251.868 168.162 251.936 168.522 252.072C168.89 252.208 169.194 252.4 169.434 252.648L169.086 253.344C168.846 253.112 168.582 252.94 168.294 252.828C168.014 252.716 167.738 252.66 167.466 252.66C166.842 252.66 166.358 252.856 166.014 253.248C165.67 253.64 165.498 254.212 165.498 254.964C165.498 255.708 165.67 256.284 166.014 256.692C166.358 257.1 166.842 257.304 167.466 257.304C167.73 257.304 168.002 257.252 168.282 257.148C168.57 257.044 168.838 256.872 169.086 256.632L169.434 257.316C169.186 257.572 168.878 257.768 168.51 257.904C168.142 258.04 167.774 258.108 167.406 258.108ZM173.17 258.108C172.594 258.108 172.09 257.984 171.658 257.736C171.234 257.48 170.906 257.12 170.674 256.656C170.442 256.184 170.326 255.628 170.326 254.988C170.326 254.34 170.442 253.784 170.674 253.32C170.906 252.856 171.234 252.5 171.658 252.252C172.09 251.996 172.594 251.868 173.17 251.868C173.754 251.868 174.258 251.996 174.682 252.252C175.114 252.5 175.446 252.856 175.678 253.32C175.918 253.784 176.038 254.34 176.038 254.988C176.038 255.628 175.918 256.184 175.678 256.656C175.446 257.12 175.114 257.48 174.682 257.736C174.258 257.984 173.754 258.108 173.17 258.108ZM173.17 257.316C173.746 257.316 174.202 257.12 174.538 256.728C174.874 256.328 175.042 255.748 175.042 254.988C175.042 254.22 174.87 253.64 174.526 253.248C174.19 252.848 173.738 252.648 173.17 252.648C172.602 252.648 172.15 252.848 171.814 253.248C171.478 253.64 171.31 254.22 171.31 254.988C171.31 255.748 171.478 256.328 171.814 256.728C172.15 257.12 172.602 257.316 173.17 257.316ZM177.554 258V253.368C177.554 253.144 177.542 252.916 177.518 252.684C177.502 252.444 177.482 252.208 177.458 251.976H178.394L178.514 253.296H178.37C178.546 252.832 178.826 252.48 179.21 252.24C179.602 251.992 180.054 251.868 180.566 251.868C181.278 251.868 181.814 252.06 182.174 252.444C182.542 252.82 182.726 253.416 182.726 254.232V258H181.754V254.292C181.754 253.724 181.638 253.312 181.406 253.056C181.182 252.792 180.83 252.66 180.35 252.66C179.79 252.66 179.346 252.832 179.018 253.176C178.69 253.52 178.526 253.98 178.526 254.556V258H177.554ZM187.261 258.108C186.317 258.108 185.573 257.836 185.029 257.292C184.485 256.74 184.213 255.976 184.213 255C184.213 254.368 184.333 253.82 184.573 253.356C184.813 252.884 185.149 252.52 185.581 252.264C186.013 252 186.509 251.868 187.069 251.868C187.621 251.868 188.085 251.984 188.461 252.216C188.837 252.448 189.125 252.78 189.325 253.212C189.525 253.636 189.625 254.14 189.625 254.724V255.084H184.957V254.472H188.989L188.785 254.628C188.785 253.988 188.641 253.488 188.353 253.128C188.065 252.768 187.637 252.588 187.069 252.588C186.469 252.588 186.001 252.8 185.665 253.224C185.329 253.64 185.161 254.204 185.161 254.916V255.024C185.161 255.776 185.345 256.348 185.713 256.74C186.089 257.124 186.613 257.316 187.285 257.316C187.645 257.316 187.981 257.264 188.293 257.16C188.613 257.048 188.917 256.868 189.205 256.62L189.541 257.304C189.277 257.56 188.941 257.76 188.533 257.904C188.133 258.04 187.709 258.108 187.261 258.108ZM196.533 258.108C195.997 258.108 195.529 257.984 195.129 257.736C194.729 257.48 194.417 257.12 194.193 256.656C193.977 256.192 193.869 255.636 193.869 254.988C193.869 254.332 193.977 253.772 194.193 253.308C194.417 252.844 194.729 252.488 195.129 252.24C195.529 251.992 195.997 251.868 196.533 251.868C197.077 251.868 197.545 252.008 197.937 252.288C198.337 252.56 198.601 252.932 198.729 253.404H198.585L198.717 251.976H199.653C199.629 252.208 199.605 252.444 199.581 252.684C199.565 252.916 199.557 253.144 199.557 253.368V258H198.585V256.584H198.717C198.589 257.056 198.325 257.428 197.925 257.7C197.525 257.972 197.061 258.108 196.533 258.108ZM196.725 257.316C197.301 257.316 197.757 257.12 198.093 256.728C198.429 256.328 198.597 255.748 198.597 254.988C198.597 254.22 198.429 253.64 198.093 253.248C197.757 252.848 197.301 252.648 196.725 252.648C196.157 252.648 195.701 252.848 195.357 253.248C195.021 253.64 194.853 254.22 194.853 254.988C194.853 255.748 195.021 256.328 195.357 256.728C195.701 257.12 196.157 257.316 196.725 257.316ZM203.968 258.108C203.376 258.108 202.86 257.98 202.42 257.724C201.988 257.468 201.652 257.104 201.412 256.632C201.18 256.16 201.064 255.6 201.064 254.952C201.064 254.296 201.184 253.74 201.424 253.284C201.664 252.82 202 252.468 202.432 252.228C202.872 251.988 203.384 251.868 203.968 251.868C204.352 251.868 204.724 251.936 205.084 252.072C205.452 252.208 205.756 252.4 205.996 252.648L205.648 253.344C205.408 253.112 205.144 252.94 204.856 252.828C204.576 252.716 204.3 252.66 204.028 252.66C203.404 252.66 202.92 252.856 202.576 253.248C202.232 253.64 202.06 254.212 202.06 254.964C202.06 255.708 202.232 256.284 202.576 256.692C202.92 257.1 203.404 257.304 204.028 257.304C204.292 257.304 204.564 257.252 204.844 257.148C205.132 257.044 205.4 256.872 205.648 256.632L205.996 257.316C205.748 257.572 205.44 257.768 205.072 257.904C204.704 258.04 204.336 258.108 203.968 258.108ZM207.378 258V251.976H208.35V258H207.378ZM207.258 250.608V249.516H208.458V250.608H207.258ZM210.237 258V253.368C210.237 253.144 210.225 252.916 210.201 252.684C210.185 252.444 210.165 252.208 210.141 251.976H211.077L211.197 253.296H211.053C211.213 252.84 211.465 252.488 211.809 252.24C212.161 251.992 212.585 251.868 213.081 251.868C213.585 251.868 213.993 251.988 214.305 252.228C214.625 252.468 214.841 252.84 214.953 253.344H214.773C214.925 252.888 215.193 252.528 215.577 252.264C215.961 252 216.409 251.868 216.921 251.868C217.585 251.868 218.085 252.06 218.421 252.444C218.757 252.82 218.925 253.416 218.925 254.232V258H217.953V254.292C217.953 253.724 217.853 253.312 217.653 253.056C217.453 252.792 217.133 252.66 216.693 252.66C216.189 252.66 215.789 252.836 215.493 253.188C215.205 253.532 215.061 253.996 215.061 254.58V258H214.089V254.292C214.089 253.724 213.989 253.312 213.789 253.056C213.589 252.792 213.269 252.66 212.829 252.66C212.325 252.66 211.929 252.836 211.641 253.188C211.353 253.532 211.209 253.996 211.209 254.58V258H210.237ZM223.064 258.108C222.528 258.108 222.06 257.984 221.66 257.736C221.26 257.48 220.948 257.12 220.724 256.656C220.508 256.192 220.4 255.636 220.4 254.988C220.4 254.332 220.508 253.772 220.724 253.308C220.948 252.844 221.26 252.488 221.66 252.24C222.06 251.992 222.528 251.868 223.064 251.868C223.608 251.868 224.076 252.008 224.468 252.288C224.868 252.56 225.132 252.932 225.26 253.404H225.116L225.248 251.976H226.184C226.16 252.208 226.136 252.444 226.112 252.684C226.096 252.916 226.088 253.144 226.088 253.368V258H225.116V256.584H225.248C225.12 257.056 224.856 257.428 224.456 257.7C224.056 257.972 223.592 258.108 223.064 258.108ZM223.256 257.316C223.832 257.316 224.288 257.12 224.624 256.728C224.96 256.328 225.128 255.748 225.128 254.988C225.128 254.22 224.96 253.64 224.624 253.248C224.288 252.848 223.832 252.648 223.256 252.648C222.688 252.648 222.232 252.848 221.888 253.248C221.552 253.64 221.384 254.22 221.384 254.988C221.384 255.748 221.552 256.328 221.888 256.728C222.232 257.12 222.688 257.316 223.256 257.316ZM231.096 260.592V253.368C231.096 253.144 231.084 252.916 231.06 252.684C231.044 252.444 231.024 252.208 231 251.976H231.936L232.068 253.404H231.924C232.052 252.932 232.312 252.56 232.704 252.288C233.096 252.008 233.564 251.868 234.108 251.868C234.652 251.868 235.12 251.992 235.512 252.24C235.912 252.488 236.224 252.844 236.448 253.308C236.672 253.772 236.784 254.332 236.784 254.988C236.784 255.636 236.672 256.192 236.448 256.656C236.232 257.12 235.924 257.48 235.524 257.736C235.124 257.984 234.652 258.108 234.108 258.108C233.572 258.108 233.108 257.972 232.716 257.7C232.324 257.428 232.064 257.056 231.936 256.584H232.068V260.592H231.096ZM233.916 257.316C234.492 257.316 234.948 257.12 235.284 256.728C235.628 256.328 235.8 255.748 235.8 254.988C235.8 254.22 235.628 253.64 235.284 253.248C234.948 252.848 234.492 252.648 233.916 252.648C233.348 252.648 232.892 252.848 232.548 253.248C232.212 253.64 232.044 254.22 232.044 254.988C232.044 255.748 232.212 256.328 232.548 256.728C232.892 257.12 233.348 257.316 233.916 257.316ZM240.584 258.108C240.048 258.108 239.58 257.984 239.18 257.736C238.78 257.48 238.468 257.12 238.244 256.656C238.028 256.192 237.92 255.636 237.92 254.988C237.92 254.332 238.028 253.772 238.244 253.308C238.468 252.844 238.78 252.488 239.18 252.24C239.58 251.992 240.048 251.868 240.584 251.868C241.128 251.868 241.596 252.008 241.988 252.288C242.388 252.56 242.652 252.932 242.78 253.404H242.636L242.768 251.976H243.704C243.68 252.208 243.656 252.444 243.632 252.684C243.616 252.916 243.608 253.144 243.608 253.368V258H242.636V256.584H242.768C242.64 257.056 242.376 257.428 241.976 257.7C241.576 257.972 241.112 258.108 240.584 258.108ZM240.776 257.316C241.352 257.316 241.808 257.12 242.144 256.728C242.48 256.328 242.648 255.748 242.648 254.988C242.648 254.22 242.48 253.64 242.144 253.248C241.808 252.848 241.352 252.648 240.776 252.648C240.208 252.648 239.752 252.848 239.408 253.248C239.072 253.64 238.904 254.22 238.904 254.988C238.904 255.748 239.072 256.328 239.408 256.728C239.752 257.12 240.208 257.316 240.776 257.316ZM245.463 258V253.428C245.463 253.188 245.455 252.944 245.439 252.696C245.431 252.448 245.415 252.208 245.391 251.976H246.327L246.447 253.44L246.279 253.452C246.359 253.092 246.499 252.796 246.699 252.564C246.899 252.332 247.135 252.16 247.407 252.048C247.679 251.928 247.963 251.868 248.259 251.868C248.379 251.868 248.483 251.872 248.571 251.88C248.667 251.888 248.755 251.908 248.835 251.94L248.823 252.804C248.703 252.764 248.591 252.74 248.487 252.732C248.391 252.716 248.279 252.708 248.151 252.708C247.799 252.708 247.491 252.792 247.227 252.96C246.971 253.128 246.775 253.344 246.639 253.608C246.511 253.872 246.447 254.152 246.447 254.448V258H245.463ZM252.08 258.108C251.544 258.108 251.076 257.984 250.676 257.736C250.276 257.48 249.964 257.12 249.74 256.656C249.524 256.192 249.416 255.636 249.416 254.988C249.416 254.332 249.524 253.772 249.74 253.308C249.964 252.844 250.276 252.488 250.676 252.24C251.076 251.992 251.544 251.868 252.08 251.868C252.624 251.868 253.092 252.008 253.484 252.288C253.884 252.56 254.148 252.932 254.276 253.404H254.132L254.264 251.976H255.2C255.176 252.208 255.152 252.444 255.128 252.684C255.112 252.916 255.104 253.144 255.104 253.368V258H254.132V256.584H254.264C254.136 257.056 253.872 257.428 253.472 257.7C253.072 257.972 252.608 258.108 252.08 258.108ZM252.272 257.316C252.848 257.316 253.304 257.12 253.64 256.728C253.976 256.328 254.144 255.748 254.144 254.988C254.144 254.22 253.976 253.64 253.64 253.248C253.304 252.848 252.848 252.648 252.272 252.648C251.704 252.648 251.248 252.848 250.904 253.248C250.568 253.64 250.4 254.22 250.4 254.988C250.4 255.748 250.568 256.328 250.904 256.728C251.248 257.12 251.704 257.316 252.272 257.316ZM110.494 273.108C109.958 273.108 109.49 272.984 109.09 272.736C108.69 272.48 108.378 272.12 108.154 271.656C107.938 271.192 107.83 270.636 107.83 269.988C107.83 269.332 107.938 268.772 108.154 268.308C108.378 267.844 108.69 267.488 109.09 267.24C109.49 266.992 109.958 266.868 110.494 266.868C111.038 266.868 111.506 267.008 111.898 267.288C112.298 267.56 112.562 267.932 112.69 268.404H112.546L112.678 266.976H113.614C113.59 267.208 113.566 267.444 113.542 267.684C113.526 267.916 113.518 268.144 113.518 268.368V273H112.546V271.584H112.678C112.55 272.056 112.286 272.428 111.886 272.7C111.486 272.972 111.022 273.108 110.494 273.108ZM110.686 272.316C111.262 272.316 111.718 272.12 112.054 271.728C112.39 271.328 112.558 270.748 112.558 269.988C112.558 269.22 112.39 268.64 112.054 268.248C111.718 267.848 111.262 267.648 110.686 267.648C110.118 267.648 109.662 267.848 109.318 268.248C108.982 268.64 108.814 269.22 108.814 269.988C108.814 270.748 108.982 271.328 109.318 271.728C109.662 272.12 110.118 272.316 110.686 272.316ZM117.677 273.108C117.149 273.108 116.685 272.984 116.285 272.736C115.885 272.48 115.573 272.12 115.349 271.656C115.133 271.192 115.025 270.636 115.025 269.988C115.025 269.332 115.133 268.772 115.349 268.308C115.573 267.844 115.885 267.488 116.285 267.24C116.685 266.992 117.149 266.868 117.677 266.868C118.221 266.868 118.689 267.004 119.081 267.276C119.481 267.548 119.749 267.916 119.885 268.38H119.741V264.168H120.713V273H119.753V271.56H119.885C119.757 272.04 119.493 272.42 119.093 272.7C118.693 272.972 118.221 273.108 117.677 273.108ZM117.881 272.316C118.449 272.316 118.905 272.12 119.249 271.728C119.593 271.328 119.765 270.748 119.765 269.988C119.765 269.22 119.593 268.64 119.249 268.248C118.905 267.848 118.449 267.648 117.881 267.648C117.313 267.648 116.857 267.848 116.513 268.248C116.177 268.64 116.009 269.22 116.009 269.988C116.009 270.748 116.177 271.328 116.513 271.728C116.857 272.12 117.313 272.316 117.881 272.316ZM122.593 273V266.976H123.565V273H122.593ZM122.473 265.608V264.516H123.673V265.608H122.473ZM127.984 273.108C127.392 273.108 126.876 272.98 126.436 272.724C126.004 272.468 125.668 272.104 125.428 271.632C125.196 271.16 125.08 270.6 125.08 269.952C125.08 269.296 125.2 268.74 125.44 268.284C125.68 267.82 126.016 267.468 126.448 267.228C126.888 266.988 127.4 266.868 127.984 266.868C128.368 266.868 128.74 266.936 129.1 267.072C129.468 267.208 129.772 267.4 130.012 267.648L129.664 268.344C129.424 268.112 129.16 267.94 128.872 267.828C128.592 267.716 128.316 267.66 128.044 267.66C127.42 267.66 126.936 267.856 126.592 268.248C126.248 268.64 126.076 269.212 126.076 269.964C126.076 270.708 126.248 271.284 126.592 271.692C126.936 272.1 127.42 272.304 128.044 272.304C128.308 272.304 128.58 272.252 128.86 272.148C129.148 272.044 129.416 271.872 129.664 271.632L130.012 272.316C129.764 272.572 129.456 272.768 129.088 272.904C128.72 273.04 128.352 273.108 127.984 273.108ZM131.393 273V266.976H132.365V273H131.393ZM131.273 265.608V264.516H132.473V265.608H131.273ZM136.725 273.108C136.149 273.108 135.645 272.984 135.213 272.736C134.789 272.48 134.461 272.12 134.229 271.656C133.997 271.184 133.881 270.628 133.881 269.988C133.881 269.34 133.997 268.784 134.229 268.32C134.461 267.856 134.789 267.5 135.213 267.252C135.645 266.996 136.149 266.868 136.725 266.868C137.309 266.868 137.813 266.996 138.237 267.252C138.669 267.5 139.001 267.856 139.233 268.32C139.473 268.784 139.593 269.34 139.593 269.988C139.593 270.628 139.473 271.184 139.233 271.656C139.001 272.12 138.669 272.48 138.237 272.736C137.813 272.984 137.309 273.108 136.725 273.108ZM136.725 272.316C137.301 272.316 137.757 272.12 138.093 271.728C138.429 271.328 138.597 270.748 138.597 269.988C138.597 269.22 138.425 268.64 138.081 268.248C137.745 267.848 137.293 267.648 136.725 267.648C136.157 267.648 135.705 267.848 135.369 268.248C135.033 268.64 134.865 269.22 134.865 269.988C134.865 270.748 135.033 271.328 135.369 271.728C135.705 272.12 136.157 272.316 136.725 272.316ZM141.108 273V268.368C141.108 268.144 141.096 267.916 141.072 267.684C141.056 267.444 141.036 267.208 141.012 266.976H141.948L142.068 268.296H141.924C142.1 267.832 142.38 267.48 142.764 267.24C143.156 266.992 143.608 266.868 144.12 266.868C144.832 266.868 145.368 267.06 145.728 267.444C146.096 267.82 146.28 268.416 146.28 269.232V273H145.308V269.292C145.308 268.724 145.192 268.312 144.96 268.056C144.736 267.792 144.384 267.66 143.904 267.66C143.344 267.66 142.9 267.832 142.572 268.176C142.244 268.52 142.08 268.98 142.08 269.556V273H141.108ZM150.431 273.108C149.895 273.108 149.427 272.984 149.027 272.736C148.627 272.48 148.315 272.12 148.091 271.656C147.875 271.192 147.767 270.636 147.767 269.988C147.767 269.332 147.875 268.772 148.091 268.308C148.315 267.844 148.627 267.488 149.027 267.24C149.427 266.992 149.895 266.868 150.431 266.868C150.975 266.868 151.443 267.008 151.835 267.288C152.235 267.56 152.499 267.932 152.627 268.404H152.483L152.615 266.976H153.551C153.527 267.208 153.503 267.444 153.479 267.684C153.463 267.916 153.455 268.144 153.455 268.368V273H152.483V271.584H152.615C152.487 272.056 152.223 272.428 151.823 272.7C151.423 272.972 150.959 273.108 150.431 273.108ZM150.623 272.316C151.199 272.316 151.655 272.12 151.991 271.728C152.327 271.328 152.495 270.748 152.495 269.988C152.495 269.22 152.327 268.64 151.991 268.248C151.655 267.848 151.199 267.648 150.623 267.648C150.055 267.648 149.599 267.848 149.255 268.248C148.919 268.64 148.751 269.22 148.751 269.988C148.751 270.748 148.919 271.328 149.255 271.728C149.599 272.12 150.055 272.316 150.623 272.316ZM155.311 273V268.428C155.311 268.188 155.303 267.944 155.287 267.696C155.279 267.448 155.263 267.208 155.239 266.976H156.175L156.295 268.44L156.127 268.452C156.207 268.092 156.347 267.796 156.547 267.564C156.747 267.332 156.983 267.16 157.255 267.048C157.527 266.928 157.811 266.868 158.107 266.868C158.227 266.868 158.331 266.872 158.419 266.88C158.515 266.888 158.603 266.908 158.683 266.94L158.671 267.804C158.551 267.764 158.439 267.74 158.335 267.732C158.239 267.716 158.127 267.708 157.999 267.708C157.647 267.708 157.339 267.792 157.075 267.96C156.819 268.128 156.623 268.344 156.487 268.608C156.359 268.872 156.295 269.152 156.295 269.448V273H155.311Z" fill="#939393"/>
<g clip-path="url(#clip0_45_1135)">
<path opacity="0.1" d="M131.502 232.999C195.843 232.999 248.002 180.84 248.002 116.499C248.002 52.1585 195.843 0 131.502 0C67.1608 0 15.002 52.1585 15.002 116.499C15.002 180.84 67.1608 232.999 131.502 232.999Z" fill="#367CFF"/>
<path d="M81.0982 81.5543C81.5194 81.0821 82.0295 80.6974 82.5993 80.4223C83.1692 80.1472 83.7876 79.987 84.4194 79.9509C85.0511 79.9148 85.6838 80.0035 86.2813 80.2119C86.8787 80.4203 87.4293 80.7444 87.9015 81.1656L103.279 94.881L96.8644 102.073L81.4867 88.3579C81.0144 87.9367 80.6297 87.4266 80.3546 86.8567C80.0795 86.2868 79.9193 85.6683 79.8833 85.0365C79.8472 84.4048 79.9359 83.7721 80.1444 83.1746C80.3528 82.5771 80.6769 82.0265 81.0982 81.5543Z" fill="white"/>
<path d="M96.9013 102.745L81.1696 88.7127C80.6507 88.2499 80.2281 87.6895 79.9258 87.0633C79.6235 86.4372 79.4475 85.7577 79.4078 85.0635C79.3681 84.3694 79.4656 83.6742 79.6945 83.0177C79.9235 82.3613 80.2796 81.7563 80.7424 81.2374C81.2052 80.7185 81.7656 80.2959 82.3917 79.9936C83.0179 79.6913 83.6974 79.5153 84.3915 79.4756C85.0857 79.4359 85.7809 79.5334 86.4374 79.7624C87.0938 79.9913 87.6988 80.3474 88.2177 80.8102L103.951 94.8424L96.9013 102.745ZM84.6979 80.4184C84.6137 80.4184 84.5292 80.4208 84.4445 80.4255C83.587 80.4747 82.7633 80.7771 82.0777 81.2944C81.392 81.8117 80.8751 82.5207 80.5923 83.3318C80.3096 84.1429 80.2737 85.0196 80.4892 85.851C80.7047 86.6825 81.1619 87.4314 81.803 88.003L96.8257 101.402L102.607 94.9201L87.5843 81.5213C86.7919 80.81 85.7642 80.4171 84.6993 80.4184H84.6979Z" fill="#292A2E"/>
<path d="M166.136 102.074L159.722 94.8824L175.099 81.1669C176.053 80.3163 177.306 79.8794 178.582 79.9523C179.857 80.0252 181.052 80.6019 181.903 81.5556C182.753 82.5094 183.19 83.7619 183.117 85.0378C183.044 86.3137 182.468 87.5083 181.514 88.359L166.136 102.074Z" fill="white"/>
<path d="M166.1 102.745L159.052 94.8424L174.785 80.8102C175.833 79.8755 177.209 79.3955 178.611 79.4756C180.013 79.5557 181.326 80.1895 182.26 81.2374C183.195 82.2854 183.675 83.6617 183.595 85.0635C183.515 86.4654 182.881 87.7781 181.833 88.7127L166.1 102.745ZM160.396 94.9194L166.177 101.401L181.2 88.003C181.625 87.6234 181.972 87.1637 182.22 86.6501C182.468 86.1365 182.612 85.5792 182.645 85.0098C182.677 84.4404 182.597 83.8703 182.41 83.3318C182.222 82.7933 181.93 82.2971 181.55 81.8715C181.17 81.4459 180.711 81.0993 180.197 80.8513C179.684 80.6034 179.126 80.4591 178.557 80.4265C177.987 80.394 177.417 80.474 176.879 80.6618C176.34 80.8496 175.844 81.1417 175.419 81.5213L160.396 94.9194Z" fill="#292A2E"/>
<path d="M172.543 110.995C175.973 126.185 180.669 135.958 178.331 141.571C177.102 144.521 174.579 146.995 170.402 146.995C163.892 146.995 163.892 139.317 157.382 139.317C150.871 139.317 150.872 146.995 144.363 146.995C137.853 146.995 137.854 139.317 131.345 139.317C124.835 139.317 124.835 146.995 118.326 146.995C111.816 146.995 111.817 139.317 105.308 139.317C98.7985 139.317 98.7992 146.995 92.2908 146.995C88.4265 146.995 86.242 144.719 84.8566 142.089C81.5274 135.77 89.2866 121.866 92.2908 109.606C95.6101 96.0575 95.3305 79.1822 95.7758 69.0044C96.6349 49.3769 111.701 33.4316 131.349 33.4316C150.997 33.4316 165.491 49.4102 166.922 69.0044C167.693 79.5676 169.403 97.0901 172.543 110.995Z" fill="white"/>
<path d="M170.402 147.475C166.925 147.475 165.197 145.437 163.526 143.465C161.926 141.578 160.415 139.796 157.382 139.796C154.349 139.796 152.84 141.578 151.238 143.465C149.567 145.435 147.839 147.475 144.363 147.475C140.886 147.475 139.158 145.437 137.488 143.465C135.888 141.578 134.376 139.796 131.344 139.796C128.313 139.796 126.802 141.578 125.201 143.465C123.53 145.435 121.803 147.475 118.326 147.475C114.848 147.475 113.12 145.437 111.452 143.467C109.852 141.58 108.341 139.798 105.309 139.798C102.277 139.798 100.767 141.58 99.1667 143.467C97.4964 145.438 95.769 147.477 92.2925 147.477C88.8344 147.477 86.2639 145.789 84.4336 142.315C82.1125 137.909 84.9002 130.12 87.8522 121.875C89.3181 117.779 90.833 113.545 91.8266 109.495C94.4812 98.6594 94.8173 85.9277 95.087 75.697C95.1505 73.2772 95.2108 70.9913 95.2999 68.9864C95.7257 59.2709 99.5886 50.2286 106.179 43.5244C109.454 40.1679 113.37 37.503 117.694 35.6875C122.018 33.872 126.662 32.9429 131.352 32.9552C136.012 32.9442 140.625 33.8762 144.915 35.6951C149.205 37.514 153.082 40.1821 156.314 43.539C162.751 50.1672 166.69 59.2003 167.404 68.9726C168.092 78.3953 169.736 96.3702 173.015 110.893C174.127 115.819 175.372 120.169 176.47 124.008C178.763 132.024 180.42 137.816 178.777 141.758C177.884 143.893 175.613 147.475 170.402 147.475ZM157.382 138.837C160.859 138.837 162.587 140.875 164.258 142.847C165.858 144.734 167.37 146.516 170.402 146.516C175.056 146.516 177.09 143.303 177.888 141.387C179.402 137.755 177.782 132.099 175.543 124.27C174.443 120.419 173.193 116.055 172.075 111.103C168.782 96.5186 167.133 78.49 166.443 69.041C164.98 49.0147 149.893 33.9129 131.348 33.9129C112.532 33.9129 97.1167 49.3365 96.2534 69.0268C96.1661 71.0232 96.1057 73.3049 96.0404 75.7204C95.7839 85.4547 95.4322 98.7857 92.7531 109.721C91.7492 113.819 90.2244 118.079 88.7503 122.197C85.8718 130.238 83.1529 137.835 85.2774 141.867C86.926 144.995 89.2187 146.515 92.2872 146.515C95.319 146.515 96.8293 144.733 98.4297 142.846C100.1 140.875 101.827 138.836 105.304 138.836C108.78 138.836 110.509 140.874 112.179 142.846C113.779 144.733 115.29 146.515 118.322 146.515C121.354 146.515 122.866 144.733 124.466 142.846C126.137 140.875 127.864 138.836 131.341 138.836C134.818 138.836 136.545 140.874 138.216 142.846C139.816 144.733 141.326 146.515 144.359 146.515C147.392 146.515 148.903 144.733 150.503 142.846C152.177 140.877 153.905 138.837 157.382 138.837Z" fill="#292A2E"/>
<path d="M117.981 71.3003C120.158 71.3003 121.924 69.5349 121.924 67.3572C121.924 65.1794 120.158 63.4141 117.981 63.4141C115.803 63.4141 114.038 65.1794 114.038 67.3572C114.038 69.5349 115.803 71.3003 117.981 71.3003Z" fill="#292A2E"/>
<path d="M145.02 71.3003C147.198 71.3003 148.963 69.5349 148.963 67.3572C148.963 65.1794 147.198 63.4141 145.02 63.4141C142.843 63.4141 141.077 65.1794 141.077 67.3572C141.077 69.5349 142.843 71.3003 145.02 71.3003Z" fill="#292A2E"/>
<path d="M138.562 78C138.79 77.9994 139.015 78.0496 139.221 78.1469C139.426 78.2442 139.608 78.3861 139.752 78.5623C139.896 78.7385 139.999 78.9446 140.053 79.1657C140.107 79.3867 140.112 79.617 140.066 79.8399C139.221 83.7933 135.707 86.2783 131.501 86.2783C127.295 86.2783 123.782 83.7944 122.936 79.8399C122.891 79.617 122.895 79.3866 122.949 79.1656C123.004 78.9445 123.107 78.7384 123.251 78.5622C123.395 78.3859 123.576 78.244 123.782 78.1468C123.988 78.0495 124.213 77.9994 124.44 78H138.562Z" fill="white"/>
<path d="M131.501 86.7579C126.97 86.7579 123.339 84.0181 122.467 79.9398C122.405 79.6495 122.409 79.3489 122.478 79.0602C122.548 78.7716 122.681 78.5022 122.869 78.272C123.058 78.0372 123.297 77.8479 123.569 77.718C123.841 77.5881 124.139 77.5209 124.44 77.5215H138.563C138.865 77.521 139.162 77.5882 139.434 77.7181C139.706 77.848 139.946 78.0373 140.135 78.272C140.322 78.5023 140.455 78.7716 140.525 79.0603C140.594 79.3489 140.598 79.6495 140.536 79.9398C139.663 84.0181 136.031 86.7579 131.501 86.7579ZM124.439 78.4796C124.281 78.4794 124.125 78.5148 123.982 78.5831C123.839 78.6514 123.713 78.7509 123.614 78.8742C123.517 78.9935 123.447 79.1332 123.411 79.283C123.375 79.4327 123.373 79.5887 123.405 79.7393C124.18 83.3634 127.433 85.7984 131.5 85.7984C135.568 85.7984 138.821 83.3634 139.596 79.7393C139.628 79.5886 139.626 79.4326 139.59 79.2829C139.553 79.1332 139.484 78.9935 139.386 78.8742C139.287 78.7509 139.161 78.6514 139.019 78.5831C138.876 78.5148 138.72 78.4794 138.561 78.4796H124.439Z" fill="#292A2E"/>
<path d="M224.187 187.089C202.903 214.995 169.306 233 131.503 233C93.7006 233 60.1032 214.995 38.8191 187.089C63.1159 177.948 95.6914 172.359 131.503 172.359C167.315 172.359 199.889 177.948 224.187 187.089Z" fill="#367CFF"/>
<path d="M233.966 61.0142L174.176 60.7587C174.176 50.7732 179.801 48.8073 185.78 47.1857C191.759 45.564 194.449 34.5885 204.839 33.9639C210.975 33.5949 214.193 35.174 216.858 37.2073C216.862 37.2108 216.862 37.2144 216.865 37.2144C223.542 44.3983 229.287 52.3945 233.966 61.0142Z" fill="white"/>
<path d="M63.415 135.211L16.5318 135.413C15.731 130.518 15.245 125.577 15.0769 120.62C25.3463 119.165 24.296 111.003 36.5597 111.745C45.6581 112.291 48.0215 121.904 53.2555 123.324C58.4896 124.743 63.415 126.469 63.415 135.211Z" fill="white"/>
</g>
<defs>
<clipPath id="clip0_45_1135">
<rect width="230.489" height="233" fill="white" transform="translate(15.7773)"/>
</clipPath>
</defs>
</svg>
