<svg width="125" height="108" viewBox="0 0 125 108" fill="none" xmlns="http://www.w3.org/2000/svg">
<rect width="125" height="108" rx="6" fill="#0077FF"/>
<path d="M87.8483 51.5391C84.5814 45.8053 79.4801 41.3377 73.3656 38.8554C76.4063 36.5749 78.6523 33.3954 79.7856 29.7675C80.9189 26.1395 80.882 22.247 79.68 18.6412C78.4781 15.0354 76.1721 11.8992 73.0887 9.67677C70.0053 7.45438 66.3008 6.25848 62.5 6.25848C58.6991 6.25848 54.9946 7.45438 51.9112 9.67677C48.8278 11.8992 46.5218 15.0354 45.3199 18.6412C44.118 22.247 44.081 26.1395 45.2143 29.7675C46.3476 33.3954 48.5937 36.5749 51.6343 38.8554C45.5199 41.3377 40.4185 45.8053 37.1516 51.5391C36.9492 51.8646 36.8142 52.2275 36.7549 52.6061C36.6955 52.9848 36.7128 53.3716 36.8059 53.7434C36.899 54.1153 37.0659 54.4646 37.2966 54.7706C37.5274 55.0767 37.8174 55.3332 38.1493 55.525C38.4812 55.7168 38.8482 55.8398 39.2286 55.8869C39.6091 55.9339 39.9951 55.904 40.3637 55.7989C40.7323 55.6938 41.076 55.5157 41.3744 55.2751C41.6728 55.0345 41.9198 54.7364 42.1007 54.3984C46.4184 46.9355 54.0434 42.4844 62.5 42.4844C70.9566 42.4844 78.5816 46.9379 82.8992 54.3984C83.2912 55.0288 83.913 55.482 84.6331 55.6622C85.3531 55.8424 86.1151 55.7356 86.7578 55.3642C87.4005 54.9929 87.8736 54.3862 88.0771 53.6723C88.2806 52.9585 88.1986 52.1935 87.8483 51.5391ZM50.1093 24.375C50.1093 21.9244 50.836 19.5288 52.1975 17.4911C53.559 15.4535 55.4942 13.8654 57.7583 12.9276C60.0224 11.9897 62.5137 11.7444 64.9173 12.2225C67.3208 12.7006 69.5286 13.8807 71.2615 15.6135C72.9943 17.3464 74.1744 19.5542 74.6525 21.9577C75.1306 24.3613 74.8852 26.8526 73.9474 29.1167C73.0096 31.3808 71.4215 33.3159 69.3838 34.6774C67.3462 36.0389 64.9506 36.7656 62.5 36.7656C59.2149 36.7619 56.0655 35.4552 53.7426 33.1323C51.4198 30.8095 50.1131 27.66 50.1093 24.375Z" fill="white"/>
<path d="M38.2861 81.64C36.8768 81.64 35.8268 81.29 35.1361 80.59C34.4548 79.8807 34.1141 78.8353 34.1141 77.454V71.63H35.9201V77.44C35.9201 78.3173 36.1068 78.98 36.4801 79.428C36.8628 79.876 37.4648 80.1 38.2861 80.1C39.0701 80.1 39.6581 79.876 40.0501 79.428C40.4515 78.98 40.6521 78.3173 40.6521 77.44V71.63H42.4301V77.454C42.4301 78.8353 42.0801 79.8807 41.3801 80.59C40.6895 81.29 39.6581 81.64 38.2861 81.64ZM46.9134 81.64C46.3067 81.64 45.7467 81.57 45.2334 81.43C44.7294 81.2807 44.3047 81.0753 43.9594 80.814L44.4494 79.638C44.8041 79.8807 45.1961 80.0673 45.6254 80.198C46.0547 80.3287 46.4887 80.394 46.9274 80.394C47.3941 80.394 47.7394 80.3147 47.9634 80.156C48.1967 79.9973 48.3134 79.7827 48.3134 79.512C48.3134 79.2973 48.2387 79.1293 48.0894 79.008C47.9494 78.8773 47.7207 78.7793 47.4034 78.714L46.0034 78.448C45.4061 78.3173 44.9487 78.0933 44.6314 77.776C44.3234 77.4587 44.1694 77.0433 44.1694 76.53C44.1694 76.0913 44.2861 75.704 44.5194 75.368C44.7621 75.032 45.1027 74.7707 45.5414 74.584C45.9894 74.388 46.5121 74.29 47.1094 74.29C47.6321 74.29 48.1221 74.36 48.5794 74.5C49.0461 74.64 49.4381 74.85 49.7554 75.13L49.2514 76.264C48.9621 76.0307 48.6307 75.8487 48.2574 75.718C47.8841 75.5873 47.5201 75.522 47.1654 75.522C46.6801 75.522 46.3254 75.6107 46.1014 75.788C45.8774 75.956 45.7654 76.1753 45.7654 76.446C45.7654 76.6513 45.8307 76.824 45.9614 76.964C46.1014 77.0947 46.3161 77.1927 46.6054 77.258L48.0054 77.524C48.6307 77.6453 49.1021 77.86 49.4194 78.168C49.7461 78.4667 49.9094 78.8773 49.9094 79.4C49.9094 79.8667 49.7834 80.268 49.5314 80.604C49.2794 80.94 48.9294 81.1967 48.4814 81.374C48.0334 81.5513 47.5107 81.64 46.9134 81.64ZM53.9551 81.64C53.0871 81.64 52.4384 81.402 52.0091 80.926C51.5797 80.45 51.3651 79.722 51.3651 78.742V74.43H53.1151V78.728C53.1151 79.2507 53.2224 79.638 53.4371 79.89C53.6517 80.1327 53.9784 80.254 54.4171 80.254C54.9117 80.254 55.3131 80.086 55.6211 79.75C55.9384 79.414 56.0971 78.9707 56.0971 78.42V74.43H57.8471V81.5H56.1391V80.058H56.3351C56.1297 80.562 55.8171 80.954 55.3971 81.234C54.9864 81.5047 54.5057 81.64 53.9551 81.64ZM62.4769 81.64C61.8609 81.64 61.3196 81.4953 60.8529 81.206C60.3863 80.9073 60.0223 80.4827 59.7609 79.932C59.4996 79.3813 59.3689 78.7233 59.3689 77.958C59.3689 77.1927 59.4996 76.5393 59.7609 75.998C60.0223 75.4473 60.3863 75.0273 60.8529 74.738C61.3196 74.4393 61.8609 74.29 62.4769 74.29C63.0743 74.29 63.5969 74.4393 64.0449 74.738C64.5023 75.0273 64.8056 75.4193 64.9549 75.914H64.8009L64.9549 74.43H66.6349C66.6069 74.7193 66.5789 75.0133 66.5509 75.312C66.5323 75.6107 66.5229 75.9047 66.5229 76.194V81.5H64.7869L64.7729 80.044H64.9409C64.7916 80.5293 64.4883 80.9167 64.0309 81.206C63.5736 81.4953 63.0556 81.64 62.4769 81.64ZM62.9669 80.296C63.5176 80.296 63.9609 80.1047 64.2969 79.722C64.6329 79.33 64.8009 78.742 64.8009 77.958C64.8009 77.174 64.6329 76.5907 64.2969 76.208C63.9609 75.8253 63.5176 75.634 62.9669 75.634C62.4163 75.634 61.9729 75.8253 61.6369 76.208C61.3009 76.5907 61.1329 77.174 61.1329 77.958C61.1329 78.742 61.2963 79.33 61.6229 79.722C61.9589 80.1047 62.4069 80.296 62.9669 80.296ZM62.4769 73.744L63.9189 70.902H65.6409L63.6529 73.744H62.4769ZM68.4146 81.5V76.236C68.4146 75.9373 68.4052 75.634 68.3866 75.326C68.3772 75.018 68.3539 74.7193 68.3166 74.43H70.0106L70.2066 76.362H69.9266C70.0199 75.8953 70.1739 75.508 70.3886 75.2C70.6126 74.892 70.8832 74.6633 71.2006 74.514C71.5179 74.3647 71.8632 74.29 72.2366 74.29C72.4046 74.29 72.5399 74.2993 72.6426 74.318C72.7452 74.3273 72.8479 74.3507 72.9506 74.388L72.9366 75.928C72.7592 75.8533 72.6052 75.8067 72.4746 75.788C72.3532 75.7693 72.1992 75.76 72.0126 75.76C71.6112 75.76 71.2706 75.844 70.9906 76.012C70.7199 76.18 70.5146 76.4133 70.3746 76.712C70.2439 77.0107 70.1786 77.3513 70.1786 77.734V81.5H68.4146ZM73.9247 81.5V74.43H75.6747V81.5H73.9247ZM73.8267 73.1V71.392H75.7727V73.1H73.8267ZM80.767 81.64C80.039 81.64 79.409 81.4907 78.877 81.192C78.345 80.8933 77.9297 80.4687 77.631 79.918C77.3417 79.3673 77.197 78.714 77.197 77.958C77.197 77.202 77.3417 76.5533 77.631 76.012C77.9297 75.4613 78.345 75.0367 78.877 74.738C79.409 74.4393 80.039 74.29 80.767 74.29C81.495 74.29 82.125 74.4393 82.657 74.738C83.1984 75.0367 83.6137 75.4613 83.903 76.012C84.2017 76.5533 84.351 77.202 84.351 77.958C84.351 78.714 84.2017 79.3673 83.903 79.918C83.6137 80.4687 83.1984 80.8933 82.657 81.192C82.125 81.4907 81.495 81.64 80.767 81.64ZM80.767 80.296C81.3177 80.296 81.7564 80.1047 82.083 79.722C82.4097 79.33 82.573 78.742 82.573 77.958C82.573 77.174 82.4097 76.5907 82.083 76.208C81.7564 75.8253 81.3177 75.634 80.767 75.634C80.2164 75.634 79.7777 75.8253 79.451 76.208C79.1244 76.5907 78.961 77.174 78.961 77.958C78.961 78.742 79.1244 79.33 79.451 79.722C79.7777 80.1047 80.2164 80.296 80.767 80.296ZM88.3802 81.64C87.7735 81.64 87.2135 81.57 86.7002 81.43C86.1962 81.2807 85.7715 81.0753 85.4262 80.814L85.9162 79.638C86.2709 79.8807 86.6629 80.0673 87.0922 80.198C87.5215 80.3287 87.9555 80.394 88.3942 80.394C88.8609 80.394 89.2062 80.3147 89.4302 80.156C89.6635 79.9973 89.7802 79.7827 89.7802 79.512C89.7802 79.2973 89.7055 79.1293 89.5562 79.008C89.4162 78.8773 89.1875 78.7793 88.8702 78.714L87.4702 78.448C86.8729 78.3173 86.4155 78.0933 86.0982 77.776C85.7902 77.4587 85.6362 77.0433 85.6362 76.53C85.6362 76.0913 85.7529 75.704 85.9862 75.368C86.2289 75.032 86.5695 74.7707 87.0082 74.584C87.4562 74.388 87.9789 74.29 88.5762 74.29C89.0989 74.29 89.5889 74.36 90.0462 74.5C90.5129 74.64 90.9049 74.85 91.2222 75.13L90.7182 76.264C90.4289 76.0307 90.0975 75.8487 89.7242 75.718C89.3509 75.5873 88.9869 75.522 88.6322 75.522C88.1469 75.522 87.7922 75.6107 87.5682 75.788C87.3442 75.956 87.2322 76.1753 87.2322 76.446C87.2322 76.6513 87.2975 76.824 87.4282 76.964C87.5682 77.0947 87.7829 77.1927 88.0722 77.258L89.4722 77.524C90.0975 77.6453 90.5689 77.86 90.8862 78.168C91.2129 78.4667 91.3762 78.8773 91.3762 79.4C91.3762 79.8667 91.2502 80.268 90.9982 80.604C90.7462 80.94 90.3962 81.1967 89.9482 81.374C89.5002 81.5513 88.9775 81.64 88.3802 81.64Z" fill="white"/>
</svg>
