<svg width="125" height="108" viewBox="0 0 125 108" fill="none" xmlns="http://www.w3.org/2000/svg">
<rect width="125" height="108" rx="6" fill="#0077FF"/>
<path d="M87.0906 38.7731L83.1887 35.4372C83.3734 34.3054 83.4687 33.1497 83.4687 31.994C83.4687 30.8384 83.3734 29.6827 83.1887 28.5509L87.0906 25.2149C87.3849 24.963 87.5955 24.6274 87.6945 24.2529C87.7934 23.8783 87.776 23.4825 87.6446 23.1181L87.591 22.9632C86.5168 19.961 84.9083 17.1779 82.8432 14.7484L82.736 14.6233C82.4855 14.3288 82.1516 14.117 81.7783 14.016C81.4051 13.915 81.01 13.9294 80.6451 14.0574L75.802 15.779C74.0149 14.3136 72.0193 13.1579 69.8629 12.3477L68.9276 7.28427C68.857 6.90327 68.6722 6.55276 68.3977 6.27931C68.1232 6.00585 67.772 5.8224 67.3907 5.75331L67.2298 5.72353C64.1262 5.16357 60.8618 5.16357 57.7582 5.72353L57.5973 5.75331C57.2161 5.8224 56.8648 6.00585 56.5903 6.27931C56.3158 6.55276 56.131 6.90327 56.0604 7.28427L55.1192 12.3716C52.98 13.1819 50.9878 14.337 49.2217 15.7909L44.3429 14.0574C43.9782 13.9284 43.5828 13.9134 43.2093 14.0145C42.8358 14.1156 42.5019 14.3279 42.252 14.6233L42.1448 14.7484C40.0821 17.1796 38.4739 19.9622 37.397 22.9632L37.3434 23.1181C37.0754 23.8627 37.2958 24.6967 37.8974 25.2149L41.8469 28.5866C41.6623 29.7065 41.5729 30.8503 41.5729 31.9881C41.5729 33.1318 41.6623 34.2756 41.8469 35.3895L37.8974 38.7612C37.6031 39.0132 37.3925 39.3487 37.2935 39.7233C37.1946 40.0979 37.212 40.4937 37.3434 40.8581L37.397 41.013C38.4753 44.0153 40.0717 46.7853 42.1448 49.2277L42.252 49.3528C42.5025 49.6474 42.8364 49.8591 43.2097 49.9602C43.5829 50.0612 43.978 50.0467 44.3429 49.9187L49.2217 48.1852C50.9969 49.6447 52.9806 50.8004 55.1192 51.6046L56.0604 56.6919C56.131 57.0729 56.3158 57.4234 56.5903 57.6969C56.8648 57.9703 57.2161 58.1538 57.5973 58.2228L57.7582 58.2526C60.8903 58.8156 64.0977 58.8156 67.2298 58.2526L67.3907 58.2228C67.772 58.1538 68.1232 57.9703 68.3977 57.6969C68.6722 57.4234 68.857 57.0729 68.9276 56.6919L69.8629 51.6284C72.0184 50.8204 74.0253 49.6609 75.802 48.1972L80.6451 49.9187C81.0099 50.0478 81.4053 50.0627 81.7787 49.9616C82.1522 49.8606 82.4861 49.6482 82.736 49.3528L82.8432 49.2277C84.9163 46.7794 86.5128 44.0153 87.591 41.013L87.6446 40.8581C87.9127 40.1254 87.6922 39.2914 87.0906 38.7731ZM78.9592 29.2538C79.1082 30.1533 79.1856 31.0767 79.1856 32C79.1856 32.9233 79.1082 33.8467 78.9592 34.7462L78.5661 37.135L83.016 40.9415C82.3414 42.4956 81.4899 43.9668 80.4783 45.3259L74.9502 43.366L73.0796 44.9029C71.6559 46.0705 70.0714 46.9879 68.3557 47.6312L66.0861 48.4831L65.0198 54.2614C63.3373 54.452 61.6388 54.452 59.9563 54.2614L58.89 48.4712L56.6382 47.6074C54.9405 46.9641 53.3619 46.0467 51.9501 44.8851L50.0796 43.3422L44.5157 45.3199C43.503 43.9558 42.6571 42.4844 41.978 40.9355L46.4755 37.0933L46.0883 34.7104C45.9454 33.8228 45.8679 32.9055 45.8679 32C45.8679 31.0886 45.9394 30.1771 46.0883 29.2895L46.4755 26.9067L41.978 23.0644C42.6511 21.5097 43.503 20.0442 44.5157 18.6801L50.0796 20.6578L51.9501 19.1149C53.3619 17.9533 54.9405 17.0359 56.6382 16.3926L58.896 15.5407L59.9623 9.75048C61.6362 9.55986 63.3459 9.55986 65.0257 9.75048L66.0921 15.5288L68.3617 16.3807C70.0714 17.024 71.6619 17.9414 73.0856 19.109L74.9561 20.6459L80.4842 18.686C81.4969 20.0502 82.3428 21.5216 83.0219 23.0704L78.572 26.8769L78.9592 29.2538ZM62.5 20.9199C56.7097 20.9199 52.0156 25.6141 52.0156 31.4043C52.0156 37.1945 56.7097 41.8887 62.5 41.8887C68.2902 41.8887 72.9843 37.1945 72.9843 31.4043C72.9843 25.6141 68.2902 20.9199 62.5 20.9199ZM67.2179 36.1223C66.5991 36.7428 65.8637 37.235 65.054 37.5703C64.2443 37.9056 63.3763 38.0775 62.5 38.0762C60.7188 38.0762 59.0449 37.3792 57.782 36.1223C57.1614 35.5035 56.6693 34.7681 56.334 33.9584C55.9986 33.1487 55.8267 32.2807 55.8281 31.4043C55.8281 29.6231 56.5251 27.9492 57.782 26.6863C59.0449 25.4234 60.7188 24.7324 62.5 24.7324C64.2811 24.7324 65.955 25.4234 67.2179 26.6863C67.8385 27.3051 68.3306 28.0405 68.666 28.8502C69.0013 29.6599 69.1732 30.5279 69.1718 31.4043C69.1718 33.1854 68.4749 34.8594 67.2179 36.1223Z" fill="white"/>
<path d="M23.2992 81.64C22.2726 81.64 21.3906 81.4347 20.6532 81.024C19.9252 80.604 19.3652 80.016 18.9732 79.26C18.5812 78.4947 18.3852 77.594 18.3852 76.558C18.3852 75.522 18.5812 74.626 18.9732 73.87C19.3652 73.114 19.9252 72.5307 20.6532 72.12C21.3906 71.7 22.2726 71.49 23.2992 71.49C23.9899 71.49 24.6106 71.588 25.1612 71.784C25.7212 71.98 26.2019 72.2693 26.6032 72.652L26.0152 74.08C25.5766 73.7253 25.1519 73.4733 24.7412 73.324C24.3399 73.1653 23.8779 73.086 23.3552 73.086C22.3566 73.086 21.5912 73.3893 21.0592 73.996C20.5366 74.5933 20.2752 75.4473 20.2752 76.558C20.2752 77.6687 20.5366 78.5273 21.0592 79.134C21.5912 79.7407 22.3566 80.044 23.3552 80.044C23.8779 80.044 24.3399 79.9693 24.7412 79.82C25.1519 79.6613 25.5766 79.4 26.0152 79.036L26.6032 80.464C26.2019 80.8373 25.7212 81.1267 25.1612 81.332C24.6106 81.5373 23.9899 81.64 23.2992 81.64ZM30.851 81.64C30.123 81.64 29.493 81.4907 28.961 81.192C28.429 80.8933 28.0137 80.4687 27.715 79.918C27.4257 79.3673 27.281 78.714 27.281 77.958C27.281 77.202 27.4257 76.5533 27.715 76.012C28.0137 75.4613 28.429 75.0367 28.961 74.738C29.493 74.4393 30.123 74.29 30.851 74.29C31.579 74.29 32.209 74.4393 32.741 74.738C33.2824 75.0367 33.6977 75.4613 33.987 76.012C34.2857 76.5533 34.435 77.202 34.435 77.958C34.435 78.714 34.2857 79.3673 33.987 79.918C33.6977 80.4687 33.2824 80.8933 32.741 81.192C32.209 81.4907 31.579 81.64 30.851 81.64ZM30.851 80.296C31.4017 80.296 31.8404 80.1047 32.167 79.722C32.4937 79.33 32.657 78.742 32.657 77.958C32.657 77.174 32.4937 76.5907 32.167 76.208C31.8404 75.8253 31.4017 75.634 30.851 75.634C30.3004 75.634 29.8617 75.8253 29.535 76.208C29.2084 76.5907 29.045 77.174 29.045 77.958C29.045 78.742 29.2084 79.33 29.535 79.722C29.8617 80.1047 30.3004 80.296 30.851 80.296ZM35.9442 81.5V76.194C35.9442 75.9047 35.9349 75.6107 35.9162 75.312C35.8975 75.0133 35.8695 74.7193 35.8322 74.43H37.5262L37.6662 75.83H37.4982C37.7222 75.3353 38.0535 74.9573 38.4922 74.696C38.9309 74.4253 39.4395 74.29 40.0182 74.29C40.8489 74.29 41.4742 74.5233 41.8942 74.99C42.3142 75.4567 42.5242 76.1847 42.5242 77.174V81.5H40.7742V77.258C40.7742 76.6887 40.6622 76.2827 40.4382 76.04C40.2235 75.788 39.8969 75.662 39.4582 75.662C38.9169 75.662 38.4875 75.83 38.1702 76.166C37.8529 76.502 37.6942 76.95 37.6942 77.51V81.5H35.9442ZM44.8557 81.5V75.746H43.4977V74.43H45.3457L44.8557 74.878V73.8C44.8557 72.9227 45.0751 72.26 45.5137 71.812C45.9617 71.364 46.6104 71.14 47.4597 71.14C47.6651 71.14 47.8797 71.154 48.1037 71.182C48.3371 71.21 48.5377 71.2613 48.7057 71.336V72.708C48.5844 72.6613 48.4397 72.624 48.2717 72.596C48.1037 72.568 47.9404 72.554 47.7817 72.554C47.4177 72.554 47.1284 72.6613 46.9137 72.876C46.6991 73.0813 46.5917 73.4173 46.5917 73.884V74.738L46.3397 74.43H51.2537V81.5H49.5037V75.746H46.6057V81.5H44.8557ZM49.4057 73.1V71.392H51.3517V73.1H49.4057ZM56.4331 84.636C55.7797 84.636 55.1871 84.566 54.6551 84.426C54.1324 84.286 53.6657 84.0713 53.2551 83.782L53.6331 82.522C53.9037 82.6993 54.1837 82.844 54.4731 82.956C54.7624 83.068 55.0611 83.152 55.3691 83.208C55.6771 83.264 55.9897 83.292 56.3071 83.292C56.9604 83.292 57.4457 83.1287 57.7631 82.802C58.0897 82.4847 58.2531 82.0273 58.2531 81.43V79.736H58.3931C58.2437 80.2213 57.9404 80.6087 57.4831 80.898C57.0351 81.1873 56.5171 81.332 55.9291 81.332C55.2944 81.332 54.7391 81.192 54.2631 80.912C53.7964 80.6227 53.4324 80.212 53.1711 79.68C52.9097 79.148 52.7791 78.5227 52.7791 77.804C52.7791 77.0853 52.9097 76.4647 53.1711 75.942C53.4324 75.41 53.7964 75.004 54.2631 74.724C54.7391 74.4347 55.2944 74.29 55.9291 74.29C56.5264 74.29 57.0444 74.4347 57.4831 74.724C57.9311 75.004 58.2297 75.3867 58.3791 75.872L58.2531 75.788L58.3931 74.43H60.0871C60.0497 74.7193 60.0217 75.0133 60.0031 75.312C59.9844 75.6107 59.9751 75.9047 59.9751 76.194V81.22C59.9751 82.3307 59.6717 83.1753 59.0651 83.754C58.4677 84.342 57.5904 84.636 56.4331 84.636ZM56.4051 79.988C56.9651 79.988 57.4084 79.8013 57.7351 79.428C58.0711 79.0453 58.2391 78.504 58.2391 77.804C58.2391 77.104 58.0711 76.5673 57.7351 76.194C57.4084 75.8207 56.9651 75.634 56.4051 75.634C55.8357 75.634 55.3831 75.8207 55.0471 76.194C54.7111 76.5673 54.5431 77.104 54.5431 77.804C54.5431 78.504 54.7111 79.0453 55.0471 79.428C55.3831 79.8013 55.8357 79.988 56.4051 79.988ZM64.4141 81.64C63.5461 81.64 62.8974 81.402 62.4681 80.926C62.0387 80.45 61.8241 79.722 61.8241 78.742V74.43H63.5741V78.728C63.5741 79.2507 63.6814 79.638 63.8961 79.89C64.1107 80.1327 64.4374 80.254 64.8761 80.254C65.3707 80.254 65.7721 80.086 66.0801 79.75C66.3974 79.414 66.5561 78.9707 66.5561 78.42V74.43H68.3061V81.5H66.5981V80.058H66.7941C66.5887 80.562 66.2761 80.954 65.8561 81.234C65.4454 81.5047 64.9647 81.64 64.4141 81.64ZM70.1919 81.5V76.236C70.1919 75.9373 70.1826 75.634 70.1639 75.326C70.1546 75.018 70.1312 74.7193 70.0939 74.43H71.7879L71.9839 76.362H71.7039C71.7972 75.8953 71.9512 75.508 72.1659 75.2C72.3899 74.892 72.6606 74.6633 72.9779 74.514C73.2952 74.3647 73.6406 74.29 74.0139 74.29C74.1819 74.29 74.3172 74.2993 74.4199 74.318C74.5226 74.3273 74.6252 74.3507 74.7279 74.388L74.7139 75.928C74.5366 75.8533 74.3826 75.8067 74.2519 75.788C74.1306 75.7693 73.9766 75.76 73.7899 75.76C73.3886 75.76 73.0479 75.844 72.7679 76.012C72.4972 76.18 72.2919 76.4133 72.1519 76.712C72.0212 77.0107 71.9559 77.3513 71.9559 77.734V81.5H70.1919ZM78.3636 81.64C77.7476 81.64 77.2063 81.4953 76.7396 81.206C76.273 80.9073 75.909 80.4827 75.6476 79.932C75.3863 79.3813 75.2556 78.7233 75.2556 77.958C75.2556 77.1927 75.3863 76.5393 75.6476 75.998C75.909 75.4473 76.273 75.0273 76.7396 74.738C77.2063 74.4393 77.7476 74.29 78.3636 74.29C78.961 74.29 79.4836 74.4393 79.9316 74.738C80.389 75.0273 80.6923 75.4193 80.8416 75.914H80.6876L80.8416 74.43H82.5216C82.4936 74.7193 82.4656 75.0133 82.4376 75.312C82.419 75.6107 82.4096 75.9047 82.4096 76.194V81.5H80.6736L80.6596 80.044H80.8276C80.6783 80.5293 80.375 80.9167 79.9176 81.206C79.4603 81.4953 78.9423 81.64 78.3636 81.64ZM78.8536 80.296C79.4043 80.296 79.8476 80.1047 80.1836 79.722C80.5196 79.33 80.6876 78.742 80.6876 77.958C80.6876 77.174 80.5196 76.5907 80.1836 76.208C79.8476 75.8253 79.4043 75.634 78.8536 75.634C78.303 75.634 77.8596 75.8253 77.5236 76.208C77.1876 76.5907 77.0196 77.174 77.0196 77.958C77.0196 78.742 77.183 79.33 77.5096 79.722C77.8456 80.1047 78.2936 80.296 78.8536 80.296ZM87.5633 81.64C86.8353 81.64 86.1959 81.4907 85.6453 81.192C85.1039 80.8933 84.6839 80.4687 84.3853 79.918C84.0866 79.358 83.9373 78.6953 83.9373 77.93C83.9373 77.1647 84.0866 76.5113 84.3853 75.97C84.6933 75.4287 85.1179 75.0133 85.6593 74.724C86.2006 74.4347 86.8353 74.29 87.5633 74.29C88.0299 74.29 88.4826 74.3647 88.9213 74.514C89.3693 74.654 89.7333 74.8593 90.0133 75.13L89.4813 76.348C89.2293 76.1147 88.9446 75.942 88.6273 75.83C88.3193 75.7087 88.0159 75.648 87.7173 75.648C87.0919 75.648 86.6019 75.844 86.2473 76.236C85.9019 76.628 85.7293 77.1973 85.7293 77.944C85.7293 78.6907 85.9019 79.2647 86.2473 79.666C86.6019 80.0673 87.0919 80.268 87.7173 80.268C88.0066 80.268 88.3053 80.212 88.6133 80.1C88.9306 79.988 89.2199 79.8153 89.4813 79.582L90.0133 80.786C89.7239 81.0567 89.3553 81.2667 88.9073 81.416C88.4686 81.5653 88.0206 81.64 87.5633 81.64ZM87.4793 84.23C87.1993 84.23 86.9333 84.202 86.6813 84.146C86.4386 84.0993 86.2239 84.0293 86.0373 83.936L86.2893 83.152C86.4573 83.2267 86.6253 83.2827 86.7933 83.32C86.9613 83.3667 87.1386 83.39 87.3253 83.39C87.5773 83.39 87.7686 83.3527 87.8993 83.278C88.0299 83.2127 88.0953 83.11 88.0953 82.97C88.0953 82.7553 87.9226 82.648 87.5773 82.648C87.4839 82.648 87.3906 82.6527 87.2973 82.662C87.2133 82.6713 87.1106 82.6947 86.9893 82.732L86.7233 82.48L86.9193 81.22H87.8573L87.6753 82.284L87.2273 82.13C87.3299 82.0927 87.4373 82.0647 87.5493 82.046C87.6706 82.0273 87.7779 82.018 87.8713 82.018C88.2539 82.018 88.5619 82.1067 88.7953 82.284C89.0286 82.4613 89.1453 82.7087 89.1453 83.026C89.1453 83.39 88.9913 83.6793 88.6833 83.894C88.3753 84.118 87.9739 84.23 87.4793 84.23ZM94.1 81.64C93.484 81.64 92.9426 81.4953 92.476 81.206C92.0093 80.9073 91.6453 80.4827 91.384 79.932C91.1226 79.3813 90.992 78.7233 90.992 77.958C90.992 77.1927 91.1226 76.5393 91.384 75.998C91.6453 75.4473 92.0093 75.0273 92.476 74.738C92.9426 74.4393 93.484 74.29 94.1 74.29C94.6973 74.29 95.22 74.4393 95.668 74.738C96.1253 75.0273 96.4286 75.4193 96.578 75.914H96.424L96.578 74.43H98.258C98.23 74.7193 98.202 75.0133 98.174 75.312C98.1553 75.6107 98.146 75.9047 98.146 76.194V81.5H96.41L96.396 80.044H96.564C96.4146 80.5293 96.1113 80.9167 95.654 81.206C95.1966 81.4953 94.6786 81.64 94.1 81.64ZM94.59 80.296C95.1406 80.296 95.584 80.1047 95.92 79.722C96.256 79.33 96.424 78.742 96.424 77.958C96.424 77.174 96.256 76.5907 95.92 76.208C95.584 75.8253 95.1406 75.634 94.59 75.634C94.0393 75.634 93.596 75.8253 93.26 76.208C92.924 76.5907 92.756 77.174 92.756 77.958C92.756 78.742 92.9193 79.33 93.246 79.722C93.582 80.1047 94.03 80.296 94.59 80.296ZM92.84 73.324L91.972 73.268C92.0186 72.6053 92.196 72.0967 92.504 71.742C92.812 71.378 93.1946 71.196 93.652 71.196C93.8573 71.196 94.0486 71.238 94.226 71.322C94.4033 71.406 94.604 71.532 94.828 71.7C95.024 71.8493 95.1826 71.9567 95.304 72.022C95.4346 72.0873 95.5606 72.12 95.682 72.12C96.1486 72.12 96.4333 71.7933 96.536 71.14L97.404 71.196C97.3666 71.8587 97.194 72.372 96.886 72.736C96.578 73.0907 96.1953 73.268 95.738 73.268C95.5326 73.268 95.3366 73.226 95.15 73.142C94.9726 73.058 94.7673 72.9273 94.534 72.75C94.3566 72.6007 94.2026 72.498 94.072 72.442C93.9506 72.3767 93.8246 72.344 93.694 72.344C93.442 72.344 93.246 72.4327 93.106 72.61C92.9753 72.778 92.8866 73.016 92.84 73.324ZM103.244 81.64C102.516 81.64 101.886 81.4907 101.354 81.192C100.822 80.8933 100.406 80.4687 100.108 79.918C99.8183 79.3673 99.6736 78.714 99.6736 77.958C99.6736 77.202 99.8183 76.5533 100.108 76.012C100.406 75.4613 100.822 75.0367 101.354 74.738C101.886 74.4393 102.516 74.29 103.244 74.29C103.972 74.29 104.602 74.4393 105.134 74.738C105.675 75.0367 106.09 75.4613 106.38 76.012C106.678 76.5533 106.828 77.202 106.828 77.958C106.828 78.714 106.678 79.3673 106.38 79.918C106.09 80.4687 105.675 80.8933 105.134 81.192C104.602 81.4907 103.972 81.64 103.244 81.64ZM103.244 80.296C103.794 80.296 104.233 80.1047 104.56 79.722C104.886 79.33 105.05 78.742 105.05 77.958C105.05 77.174 104.886 76.5907 104.56 76.208C104.233 75.8253 103.794 75.634 103.244 75.634C102.693 75.634 102.254 75.8253 101.928 76.208C101.601 76.5907 101.438 77.174 101.438 77.958C101.438 78.742 101.601 79.33 101.928 79.722C102.254 80.1047 102.693 80.296 103.244 80.296Z" fill="white"/>
</svg>
