<svg width="125" height="108" viewBox="0 0 125 108" fill="none" xmlns="http://www.w3.org/2000/svg">
<rect width="125" height="108" rx="6" fill="#0077FF"/>
<path d="M49.7917 22.0833V47.5M42.1667 24.625V44.9583M57.4167 22.0833C57.4167 20.7351 57.9523 19.4422 58.9056 18.4889C59.8589 17.5356 61.1519 17 62.5001 17H77.7501C79.0983 17 80.3912 17.5356 81.3445 18.4889C82.2979 19.4422 82.8334 20.7351 82.8334 22.0833V47.5C82.8334 48.8482 82.2979 50.1411 81.3445 51.0945C80.3912 52.0478 79.0983 52.5833 77.7501 52.5833H62.5001C61.1519 52.5833 59.8589 52.0478 58.9056 51.0945C57.9523 50.1411 57.4167 48.8482 57.4167 47.5V22.0833Z" stroke="white" stroke-width="5.08333" stroke-linecap="round" stroke-linejoin="round"/>
<path d="M40.6365 84.5833L36.2405 74.7133H38.1865L41.7285 83.0013H41.1405L44.6825 74.7133H46.5585L42.1625 84.5833H40.6365ZM49.9354 84.7233C48.75 84.7233 47.8214 84.3966 47.1494 83.7433C46.4774 83.09 46.1414 82.194 46.1414 81.0553C46.1414 80.318 46.286 79.674 46.5754 79.1233C46.8647 78.5726 47.266 78.1433 47.7794 77.8353C48.302 77.5273 48.9087 77.3733 49.5994 77.3733C50.2807 77.3733 50.85 77.518 51.3074 77.8073C51.7647 78.0966 52.11 78.5026 52.3434 79.0253C52.5861 79.548 52.7074 80.1593 52.7074 80.8593V81.3213H47.5554V80.3973H51.4614L51.2234 80.5933C51.2234 79.94 51.0834 79.4406 50.8034 79.0953C50.5327 78.75 50.136 78.5773 49.6134 78.5773C49.0347 78.5773 48.5867 78.7826 48.2694 79.1933C47.9614 79.604 47.8074 80.178 47.8074 80.9153V81.0973C47.8074 81.8626 47.994 82.4366 48.3674 82.8193C48.75 83.1926 49.2867 83.3793 49.9774 83.3793C50.3787 83.3793 50.752 83.328 51.0974 83.2253C51.452 83.1133 51.788 82.936 52.1054 82.6933L52.6234 83.8693C52.2874 84.14 51.886 84.35 51.4194 84.4993C50.9527 84.6486 50.458 84.7233 49.9354 84.7233ZM54.1753 84.5833V79.3193C54.1753 79.0206 54.166 78.7173 54.1473 78.4093C54.138 78.1013 54.1146 77.8026 54.0773 77.5133H55.7713L55.9673 79.4453H55.6873C55.7806 78.9786 55.9346 78.5913 56.1493 78.2833C56.3733 77.9753 56.644 77.7466 56.9613 77.5973C57.2786 77.448 57.624 77.3733 57.9973 77.3733C58.1653 77.3733 58.3006 77.3826 58.4033 77.4013C58.506 77.4106 58.6086 77.434 58.7113 77.4713L58.6973 79.0113C58.52 78.9366 58.366 78.89 58.2353 78.8713C58.114 78.8526 57.96 78.8433 57.7733 78.8433C57.372 78.8433 57.0313 78.9273 56.7513 79.0953C56.4806 79.2633 56.2753 79.4966 56.1353 79.7953C56.0046 80.094 55.9393 80.4346 55.9393 80.8173V84.5833H54.1753ZM62.137 84.7233C61.5304 84.7233 60.9704 84.6533 60.457 84.5133C59.953 84.364 59.5284 84.1586 59.183 83.8973L59.673 82.7213C60.0277 82.964 60.4197 83.1506 60.849 83.2813C61.2784 83.412 61.7124 83.4773 62.151 83.4773C62.6177 83.4773 62.963 83.398 63.187 83.2393C63.4204 83.0806 63.537 82.866 63.537 82.5953C63.537 82.3806 63.4624 82.2126 63.313 82.0913C63.173 81.9606 62.9444 81.8626 62.627 81.7973L61.227 81.5313C60.6297 81.4006 60.1724 81.1766 59.855 80.8593C59.547 80.542 59.393 80.1266 59.393 79.6133C59.393 79.1746 59.5097 78.7873 59.743 78.4513C59.9857 78.1153 60.3264 77.854 60.765 77.6673C61.213 77.4713 61.7357 77.3733 62.333 77.3733C62.8557 77.3733 63.3457 77.4433 63.803 77.5833C64.2697 77.7233 64.6617 77.9333 64.979 78.2133L64.475 79.3473C64.1857 79.114 63.8544 78.932 63.481 78.8013C63.1077 78.6706 62.7437 78.6053 62.389 78.6053C61.9037 78.6053 61.549 78.694 61.325 78.8713C61.101 79.0393 60.989 79.2586 60.989 79.5293C60.989 79.7346 61.0544 79.9073 61.185 80.0473C61.325 80.178 61.5397 80.276 61.829 80.3413L63.229 80.6073C63.8544 80.7286 64.3257 80.9433 64.643 81.2513C64.9697 81.55 65.133 81.9606 65.133 82.4833C65.133 82.95 65.007 83.3513 64.755 83.6873C64.503 84.0233 64.153 84.28 63.705 84.4573C63.257 84.6346 62.7344 84.7233 62.137 84.7233ZM69.8227 84.7233C69.0947 84.7233 68.4647 84.574 67.9327 84.2753C67.4007 83.9766 66.9854 83.552 66.6867 83.0013C66.3974 82.4506 66.2527 81.7973 66.2527 81.0413C66.2527 80.2853 66.3974 79.6366 66.6867 79.0953C66.9854 78.5446 67.4007 78.12 67.9327 77.8213C68.4647 77.5226 69.0947 77.3733 69.8227 77.3733C70.5507 77.3733 71.1807 77.5226 71.7127 77.8213C72.254 78.12 72.6694 78.5446 72.9587 79.0953C73.2574 79.6366 73.4067 80.2853 73.4067 81.0413C73.4067 81.7973 73.2574 82.4506 72.9587 83.0013C72.6694 83.552 72.254 83.9766 71.7127 84.2753C71.1807 84.574 70.5507 84.7233 69.8227 84.7233ZM69.8227 83.3793C70.3734 83.3793 70.812 83.188 71.1387 82.8053C71.4654 82.4133 71.6287 81.8253 71.6287 81.0413C71.6287 80.2573 71.4654 79.674 71.1387 79.2913C70.812 78.9086 70.3734 78.7173 69.8227 78.7173C69.272 78.7173 68.8334 78.9086 68.5067 79.2913C68.18 79.674 68.0167 80.2573 68.0167 81.0413C68.0167 81.8253 68.18 82.4133 68.5067 82.8053C68.8334 83.188 69.272 83.3793 69.8227 83.3793ZM67.9887 76.4073L67.1207 76.3513C67.1674 75.6886 67.3447 75.18 67.6527 74.8253C67.9607 74.4613 68.3434 74.2793 68.8007 74.2793C69.006 74.2793 69.1974 74.3213 69.3747 74.4053C69.552 74.4893 69.7527 74.6153 69.9767 74.7833C70.1727 74.9326 70.3314 75.04 70.4527 75.1053C70.5834 75.1706 70.7094 75.2033 70.8307 75.2033C71.2974 75.2033 71.582 74.8766 71.6847 74.2233L72.5527 74.2793C72.5154 74.942 72.3427 75.4553 72.0347 75.8193C71.7267 76.174 71.344 76.3513 70.8867 76.3513C70.6814 76.3513 70.4854 76.3093 70.2987 76.2253C70.1214 76.1413 69.916 76.0106 69.6827 75.8333C69.5054 75.684 69.3514 75.5813 69.2207 75.5253C69.0994 75.46 68.9734 75.4273 68.8427 75.4273C68.5907 75.4273 68.3947 75.516 68.2547 75.6933C68.124 75.8613 68.0354 76.0993 67.9887 76.4073ZM78.3319 84.7233C77.1465 84.7233 76.2179 84.3966 75.5459 83.7433C74.8739 83.09 74.5379 82.194 74.5379 81.0553C74.5379 80.318 74.6825 79.674 74.9719 79.1233C75.2612 78.5726 75.6625 78.1433 76.1759 77.8353C76.6985 77.5273 77.3052 77.3733 77.9959 77.3733C78.6772 77.3733 79.2465 77.518 79.7039 77.8073C80.1612 78.0966 80.5065 78.5026 80.7399 79.0253C80.9825 79.548 81.1039 80.1593 81.1039 80.8593V81.3213H75.9519V80.3973H79.8579L79.6199 80.5933C79.6199 79.94 79.4799 79.4406 79.1999 79.0953C78.9292 78.75 78.5325 78.5773 78.0099 78.5773C77.4312 78.5773 76.9832 78.7826 76.6659 79.1933C76.3579 79.604 76.2039 80.178 76.2039 80.9153V81.0973C76.2039 81.8626 76.3905 82.4366 76.7639 82.8193C77.1465 83.1926 77.6832 83.3793 78.3739 83.3793C78.7752 83.3793 79.1485 83.328 79.4939 83.2253C79.8485 83.1133 80.1845 82.936 80.5019 82.6933L81.0199 83.8693C80.6839 84.14 80.2825 84.35 79.8159 84.4993C79.3492 84.6486 78.8545 84.7233 78.3319 84.7233ZM85.1058 84.7233C84.4991 84.7233 83.9391 84.6533 83.4258 84.5133C82.9218 84.364 82.4971 84.1586 82.1518 83.8973L82.6418 82.7213C82.9965 82.964 83.3885 83.1506 83.8178 83.2813C84.2471 83.412 84.6811 83.4773 85.1198 83.4773C85.5865 83.4773 85.9318 83.398 86.1558 83.2393C86.3891 83.0806 86.5058 82.866 86.5058 82.5953C86.5058 82.3806 86.4311 82.2126 86.2818 82.0913C86.1418 81.9606 85.9131 81.8626 85.5958 81.7973L84.1958 81.5313C83.5985 81.4006 83.1411 81.1766 82.8238 80.8593C82.5158 80.542 82.3618 80.1266 82.3618 79.6133C82.3618 79.1746 82.4785 78.7873 82.7118 78.4513C82.9545 78.1153 83.2951 77.854 83.7338 77.6673C84.1818 77.4713 84.7045 77.3733 85.3018 77.3733C85.8245 77.3733 86.3145 77.4433 86.7718 77.5833C87.2385 77.7233 87.6305 77.9333 87.9478 78.2133L87.4438 79.3473C87.1545 79.114 86.8231 78.932 86.4498 78.8013C86.0765 78.6706 85.7125 78.6053 85.3578 78.6053C84.8725 78.6053 84.5178 78.694 84.2938 78.8713C84.0698 79.0393 83.9578 79.2586 83.9578 79.5293C83.9578 79.7346 84.0231 79.9073 84.1538 80.0473C84.2938 80.178 84.5085 80.276 84.7978 80.3413L86.1978 80.6073C86.8231 80.7286 87.2945 80.9433 87.6118 81.2513C87.9385 81.55 88.1018 81.9606 88.1018 82.4833C88.1018 82.95 87.9758 83.3513 87.7238 83.6873C87.4718 84.0233 87.1218 84.28 86.6738 84.4573C86.2258 84.6346 85.7031 84.7233 85.1058 84.7233Z" fill="white"/>
</svg>
