<svg width="125" height="108" viewBox="0 0 125 108" fill="none" xmlns="http://www.w3.org/2000/svg">
<rect width="125" height="108" rx="6" fill="#0077FF"/>
<path d="M82.8333 16.7083H54.875C52.0792 16.7083 49.7917 18.9958 49.7917 21.7916V57.375L59.9583 47.2083H82.8333C85.6292 47.2083 87.9167 44.9208 87.9167 42.125V21.7916C87.9167 18.9958 85.6292 16.7083 82.8333 16.7083ZM82.8333 42.125H57.925L54.875 45.175V21.7916H82.8333V42.125ZM39.625 21.7916C38.1 21.7916 37.0833 22.8083 37.0833 24.3333C37.0833 25.8583 38.1 26.875 39.625 26.875H44.7083V21.7916H39.625ZM37.0833 31.9583C35.5583 31.9583 34.5417 32.975 34.5417 34.5C34.5417 36.025 35.5583 37.0416 37.0833 37.0416H44.7083V31.9583H37.0833ZM34.5417 42.125C33.0167 42.125 32 43.1416 32 44.6666C32 46.1916 33.0167 47.2083 34.5417 47.2083H44.7083V42.125H34.5417Z" fill="white"/>
<path d="M25.7007 84V74.13H27.2827L30.9087 82.292H30.4747L34.1007 74.13H35.6687V84H34.0307V76.678H34.5347L31.2167 84H30.1387L26.8207 76.678H27.3387V84H25.7007ZM41.1444 84.14C39.959 84.14 39.0304 83.8133 38.3584 83.16C37.6864 82.5067 37.3504 81.6107 37.3504 80.472C37.3504 79.7347 37.495 79.0907 37.7844 78.54C38.0737 77.9893 38.475 77.56 38.9884 77.252C39.511 76.944 40.1177 76.79 40.8084 76.79C41.4897 76.79 42.059 76.9347 42.5164 77.224C42.9737 77.5133 43.319 77.9193 43.5524 78.442C43.795 78.9647 43.9164 79.576 43.9164 80.276V80.738H38.7644V79.814H42.6704L42.4324 80.01C42.4324 79.3567 42.2924 78.8573 42.0124 78.512C41.7417 78.1667 41.345 77.994 40.8224 77.994C40.2437 77.994 39.7957 78.1993 39.4784 78.61C39.1704 79.0207 39.0164 79.5947 39.0164 80.332V80.514C39.0164 81.2793 39.203 81.8533 39.5764 82.236C39.959 82.6093 40.4957 82.796 41.1864 82.796C41.5877 82.796 41.961 82.7447 42.3064 82.642C42.661 82.53 42.997 82.3527 43.3144 82.11L43.8324 83.286C43.4964 83.5567 43.095 83.7667 42.6284 83.916C42.1617 84.0653 41.667 84.14 41.1444 84.14ZM45.3983 84V78.694C45.3983 78.4047 45.389 78.1107 45.3703 77.812C45.3516 77.5133 45.3236 77.2193 45.2863 76.93H46.9803L47.1203 78.33H46.9523C47.1763 77.8353 47.5076 77.4573 47.9463 77.196C48.385 76.9253 48.8936 76.79 49.4723 76.79C50.303 76.79 50.9283 77.0233 51.3483 77.49C51.7683 77.9567 51.9783 78.6847 51.9783 79.674V84H50.2283V79.758C50.2283 79.1887 50.1163 78.7827 49.8923 78.54C49.6776 78.288 49.351 78.162 48.9123 78.162C48.371 78.162 47.9416 78.33 47.6243 78.666C47.307 79.002 47.1483 79.45 47.1483 80.01V84H45.3983ZM56.3538 84.14C55.7472 84.14 55.1872 84.07 54.6738 83.93C54.1698 83.7807 53.7452 83.5753 53.3998 83.314L53.8898 82.138C54.2445 82.3807 54.6365 82.5673 55.0658 82.698C55.4952 82.8287 55.9292 82.894 56.3678 82.894C56.8345 82.894 57.1798 82.8147 57.4038 82.656C57.6372 82.4973 57.7538 82.2827 57.7538 82.012C57.7538 81.7973 57.6792 81.6293 57.5298 81.508C57.3898 81.3773 57.1612 81.2793 56.8438 81.214L55.4438 80.948C54.8465 80.8173 54.3892 80.5933 54.0718 80.276C53.7638 79.9587 53.6098 79.5433 53.6098 79.03C53.6098 78.5913 53.7265 78.204 53.9598 77.868C54.2025 77.532 54.5432 77.2707 54.9818 77.084C55.4298 76.888 55.9525 76.79 56.5498 76.79C57.0725 76.79 57.5625 76.86 58.0198 77C58.4865 77.14 58.8785 77.35 59.1958 77.63L58.6918 78.764C58.4025 78.5307 58.0712 78.3487 57.6978 78.218C57.3245 78.0873 56.9605 78.022 56.6058 78.022C56.1205 78.022 55.7658 78.1107 55.5418 78.288C55.3178 78.456 55.2058 78.6753 55.2058 78.946C55.2058 79.1513 55.2712 79.324 55.4018 79.464C55.5418 79.5947 55.7565 79.6927 56.0458 79.758L57.4458 80.024C58.0712 80.1453 58.5425 80.36 58.8598 80.668C59.1865 80.9667 59.3498 81.3773 59.3498 81.9C59.3498 82.3667 59.2238 82.768 58.9718 83.104C58.7198 83.44 58.3698 83.6967 57.9218 83.874C57.4738 84.0513 56.9512 84.14 56.3538 84.14ZM63.5775 84.14C62.9615 84.14 62.4202 83.9953 61.9535 83.706C61.4868 83.4073 61.1228 82.9827 60.8615 82.432C60.6002 81.8813 60.4695 81.2233 60.4695 80.458C60.4695 79.6927 60.6002 79.0393 60.8615 78.498C61.1228 77.9473 61.4868 77.5273 61.9535 77.238C62.4202 76.9393 62.9615 76.79 63.5775 76.79C64.1748 76.79 64.6975 76.9393 65.1455 77.238C65.6028 77.5273 65.9062 77.9193 66.0555 78.414H65.9015L66.0555 76.93H67.7355C67.7075 77.2193 67.6795 77.5133 67.6515 77.812C67.6328 78.1107 67.6235 78.4047 67.6235 78.694V84H65.8875L65.8735 82.544H66.0415C65.8922 83.0293 65.5888 83.4167 65.1315 83.706C64.6742 83.9953 64.1562 84.14 63.5775 84.14ZM64.0675 82.796C64.6182 82.796 65.0615 82.6047 65.3975 82.222C65.7335 81.83 65.9015 81.242 65.9015 80.458C65.9015 79.674 65.7335 79.0907 65.3975 78.708C65.0615 78.3253 64.6182 78.134 64.0675 78.134C63.5168 78.134 63.0735 78.3253 62.7375 78.708C62.4015 79.0907 62.2335 79.674 62.2335 80.458C62.2335 81.242 62.3968 81.83 62.7235 82.222C63.0595 82.6047 63.5075 82.796 64.0675 82.796ZM72.8051 87.136C72.1518 87.136 71.5591 87.066 71.0271 86.926C70.5045 86.786 70.0378 86.5713 69.6271 86.282L70.0051 85.022C70.2758 85.1993 70.5558 85.344 70.8451 85.456C71.1345 85.568 71.4331 85.652 71.7411 85.708C72.0491 85.764 72.3618 85.792 72.6791 85.792C73.3325 85.792 73.8178 85.6287 74.1351 85.302C74.4618 84.9847 74.6251 84.5273 74.6251 83.93V82.236H74.7651C74.6158 82.7213 74.3125 83.1087 73.8551 83.398C73.4071 83.6873 72.8891 83.832 72.3011 83.832C71.6665 83.832 71.1111 83.692 70.6351 83.412C70.1685 83.1227 69.8045 82.712 69.5431 82.18C69.2818 81.648 69.1511 81.0227 69.1511 80.304C69.1511 79.5853 69.2818 78.9647 69.5431 78.442C69.8045 77.91 70.1685 77.504 70.6351 77.224C71.1111 76.9347 71.6665 76.79 72.3011 76.79C72.8985 76.79 73.4165 76.9347 73.8551 77.224C74.3031 77.504 74.6018 77.8867 74.7511 78.372L74.6251 78.288L74.7651 76.93H76.4591C76.4218 77.2193 76.3938 77.5133 76.3751 77.812C76.3565 78.1107 76.3471 78.4047 76.3471 78.694V83.72C76.3471 84.8307 76.0438 85.6753 75.4371 86.254C74.8398 86.842 73.9625 87.136 72.8051 87.136ZM72.7771 82.488C73.3371 82.488 73.7805 82.3013 74.1071 81.928C74.4431 81.5453 74.6111 81.004 74.6111 80.304C74.6111 79.604 74.4431 79.0673 74.1071 78.694C73.7805 78.3207 73.3371 78.134 72.7771 78.134C72.2078 78.134 71.7551 78.3207 71.4191 78.694C71.0831 79.0673 70.9151 79.604 70.9151 80.304C70.9151 81.004 71.0831 81.5453 71.4191 81.928C71.7551 82.3013 72.2078 82.488 72.7771 82.488ZM81.6541 84.14C80.4688 84.14 79.5401 83.8133 78.8681 83.16C78.1961 82.5067 77.8601 81.6107 77.8601 80.472C77.8601 79.7347 78.0048 79.0907 78.2941 78.54C78.5835 77.9893 78.9848 77.56 79.4981 77.252C80.0208 76.944 80.6275 76.79 81.3181 76.79C81.9995 76.79 82.5688 76.9347 83.0261 77.224C83.4835 77.5133 83.8288 77.9193 84.0621 78.442C84.3048 78.9647 84.4261 79.576 84.4261 80.276V80.738H79.2741V79.814H83.1801L82.9421 80.01C82.9421 79.3567 82.8021 78.8573 82.5221 78.512C82.2515 78.1667 81.8548 77.994 81.3321 77.994C80.7535 77.994 80.3055 78.1993 79.9881 78.61C79.6801 79.0207 79.5261 79.5947 79.5261 80.332V80.514C79.5261 81.2793 79.7128 81.8533 80.0861 82.236C80.4688 82.6093 81.0055 82.796 81.6961 82.796C82.0975 82.796 82.4708 82.7447 82.8161 82.642C83.1708 82.53 83.5068 82.3527 83.8241 82.11L84.3421 83.286C84.0061 83.5567 83.6048 83.7667 83.1381 83.916C82.6715 84.0653 82.1768 84.14 81.6541 84.14ZM85.9081 84V78.694C85.9081 78.4047 85.8987 78.1107 85.8801 77.812C85.8614 77.5133 85.8334 77.2193 85.7961 76.93H87.4901L87.6301 78.33H87.4621C87.6861 77.8353 88.0174 77.4573 88.4561 77.196C88.8947 76.9253 89.4034 76.79 89.9821 76.79C90.8127 76.79 91.4381 77.0233 91.8581 77.49C92.2781 77.9567 92.4881 78.6847 92.4881 79.674V84H90.7381V79.758C90.7381 79.1887 90.6261 78.7827 90.4021 78.54C90.1874 78.288 89.8607 78.162 89.4221 78.162C88.8807 78.162 88.4514 78.33 88.1341 78.666C87.8167 79.002 87.6581 79.45 87.6581 80.01V84H85.9081ZM96.8636 84.14C96.2569 84.14 95.6969 84.07 95.1836 83.93C94.6796 83.7807 94.2549 83.5753 93.9096 83.314L94.3996 82.138C94.7543 82.3807 95.1463 82.5673 95.5756 82.698C96.0049 82.8287 96.4389 82.894 96.8776 82.894C97.3443 82.894 97.6896 82.8147 97.9136 82.656C98.1469 82.4973 98.2636 82.2827 98.2636 82.012C98.2636 81.7973 98.1889 81.6293 98.0396 81.508C97.8996 81.3773 97.6709 81.2793 97.3536 81.214L95.9536 80.948C95.3563 80.8173 94.8989 80.5933 94.5816 80.276C94.2736 79.9587 94.1196 79.5433 94.1196 79.03C94.1196 78.5913 94.2363 78.204 94.4696 77.868C94.7123 77.532 95.0529 77.2707 95.4916 77.084C95.9396 76.888 96.4623 76.79 97.0596 76.79C97.5823 76.79 98.0723 76.86 98.5296 77C98.9963 77.14 99.3883 77.35 99.7056 77.63L99.2016 78.764C98.9123 78.5307 98.5809 78.3487 98.2076 78.218C97.8343 78.0873 97.4703 78.022 97.1156 78.022C96.6303 78.022 96.2756 78.1107 96.0516 78.288C95.8276 78.456 95.7156 78.6753 95.7156 78.946C95.7156 79.1513 95.7809 79.324 95.9116 79.464C96.0516 79.5947 96.2663 79.6927 96.5556 79.758L97.9556 80.024C98.5809 80.1453 99.0523 80.36 99.3696 80.668C99.6963 80.9667 99.8596 81.3773 99.8596 81.9C99.8596 82.3667 99.7336 82.768 99.4816 83.104C99.2296 83.44 98.8796 83.6967 98.4316 83.874C97.9836 84.0513 97.4609 84.14 96.8636 84.14ZM18.5399 105.024V96.694C18.5399 96.4047 18.5306 96.1107 18.5119 95.812C18.4932 95.5133 18.4652 95.2193 18.4279 94.93H20.1219L20.2759 96.414H20.1219C20.2619 95.9193 20.5559 95.5273 21.0039 95.238C21.4612 94.9393 21.9886 94.79 22.5859 94.79C23.2112 94.79 23.7572 94.9393 24.2239 95.238C24.6906 95.5273 25.0546 95.9473 25.3159 96.498C25.5772 97.0393 25.7079 97.6927 25.7079 98.458C25.7079 99.2233 25.5772 99.8813 25.3159 100.432C25.0546 100.983 24.6906 101.407 24.2239 101.706C23.7572 101.995 23.2112 102.14 22.5859 102.14C21.9979 102.14 21.4799 101.995 21.0319 101.706C20.5839 101.417 20.2852 101.029 20.1359 100.544H20.2899V105.024H18.5399ZM22.0959 100.796C22.6559 100.796 23.1039 100.605 23.4399 100.222C23.7759 99.83 23.9439 99.242 23.9439 98.458C23.9439 97.674 23.7759 97.0907 23.4399 96.708C23.1039 96.3253 22.6559 96.134 22.0959 96.134C21.5452 96.134 21.1019 96.3253 20.7659 96.708C20.4299 97.0907 20.2619 97.674 20.2619 98.458C20.2619 99.242 20.4299 99.83 20.7659 100.222C21.1019 100.605 21.5452 100.796 22.0959 100.796ZM27.2075 102V96.736C27.2075 96.4373 27.1982 96.134 27.1795 95.826C27.1702 95.518 27.1469 95.2193 27.1095 94.93H28.8035L28.9995 96.862H28.7195C28.8129 96.3953 28.9669 96.008 29.1815 95.7C29.4055 95.392 29.6762 95.1633 29.9935 95.014C30.3109 94.8647 30.6562 94.79 31.0295 94.79C31.1975 94.79 31.3329 94.7993 31.4355 94.818C31.5382 94.8273 31.6409 94.8507 31.7435 94.888L31.7295 96.428C31.5522 96.3533 31.3982 96.3067 31.2675 96.288C31.1462 96.2693 30.9922 96.26 30.8055 96.26C30.4042 96.26 30.0635 96.344 29.7835 96.512C29.5129 96.68 29.3075 96.9133 29.1675 97.212C29.0369 97.5107 28.9715 97.8513 28.9715 98.234V102H27.2075ZM36.0243 102.14C34.8389 102.14 33.9103 101.813 33.2383 101.16C32.5663 100.507 32.2303 99.6107 32.2303 98.472C32.2303 97.7347 32.3749 97.0907 32.6643 96.54C32.9536 95.9893 33.3549 95.56 33.8683 95.252C34.3909 94.944 34.9976 94.79 35.6883 94.79C36.3696 94.79 36.9389 94.9347 37.3963 95.224C37.8536 95.5133 38.1989 95.9193 38.4323 96.442C38.6749 96.9647 38.7963 97.576 38.7963 98.276V98.738H33.6443V97.814H37.5503L37.3123 98.01C37.3123 97.3567 37.1723 96.8573 36.8923 96.512C36.6216 96.1667 36.2249 95.994 35.7023 95.994C35.1236 95.994 34.6756 96.1993 34.3583 96.61C34.0503 97.0207 33.8963 97.5947 33.8963 98.332V98.514C33.8963 99.2793 34.0829 99.8533 34.4563 100.236C34.8389 100.609 35.3756 100.796 36.0663 100.796C36.4676 100.796 36.8409 100.745 37.1863 100.642C37.5409 100.53 37.8769 100.353 38.1943 100.11L38.7123 101.286C38.3763 101.557 37.9749 101.767 37.5083 101.916C37.0416 102.065 36.5469 102.14 36.0243 102.14ZM35.1003 94.244L36.5423 91.402H38.2643L36.2763 94.244H35.1003ZM40.4419 98.836V97.45H44.6979V98.836H40.4419ZM49.5437 102.14C48.9277 102.14 48.3817 101.995 47.9057 101.706C47.439 101.407 47.075 100.983 46.8137 100.432C46.5523 99.8813 46.4217 99.2233 46.4217 98.458C46.4217 97.6927 46.5523 97.0393 46.8137 96.498C47.075 95.9473 47.439 95.5273 47.9057 95.238C48.3817 94.9393 48.9277 94.79 49.5437 94.79C50.1317 94.79 50.6497 94.9347 51.0977 95.224C51.555 95.504 51.8583 95.8867 52.0077 96.372H51.8257V91.696H53.5757V102H51.8537V100.502H52.0217C51.8723 101.006 51.569 101.407 51.1117 101.706C50.6637 101.995 50.141 102.14 49.5437 102.14ZM50.0337 100.796C50.5843 100.796 51.0277 100.605 51.3637 100.222C51.6997 99.83 51.8677 99.242 51.8677 98.458C51.8677 97.674 51.6997 97.0907 51.3637 96.708C51.0277 96.3253 50.5843 96.134 50.0337 96.134C49.483 96.134 49.035 96.3253 48.6897 96.708C48.3537 97.0907 48.1857 97.674 48.1857 98.458C48.1857 99.242 48.3537 99.83 48.6897 100.222C49.035 100.605 49.483 100.796 50.0337 100.796ZM58.8973 102.14C57.712 102.14 56.7833 101.813 56.1113 101.16C55.4393 100.507 55.1033 99.6107 55.1033 98.472C55.1033 97.7347 55.248 97.0907 55.5373 96.54C55.8266 95.9893 56.228 95.56 56.7413 95.252C57.264 94.944 57.8706 94.79 58.5613 94.79C59.2426 94.79 59.812 94.9347 60.2693 95.224C60.7266 95.5133 61.072 95.9193 61.3053 96.442C61.548 96.9647 61.6693 97.576 61.6693 98.276V98.738H56.5173V97.814H60.4233L60.1853 98.01C60.1853 97.3567 60.0453 96.8573 59.7653 96.512C59.4946 96.1667 59.098 95.994 58.5753 95.994C57.9966 95.994 57.5486 96.1993 57.2313 96.61C56.9233 97.0207 56.7693 97.5947 56.7693 98.332V98.514C56.7693 99.2793 56.956 99.8533 57.3293 100.236C57.712 100.609 58.2486 100.796 58.9393 100.796C59.3406 100.796 59.714 100.745 60.0593 100.642C60.414 100.53 60.75 100.353 61.0673 100.11L61.5853 101.286C61.2493 101.557 60.848 101.767 60.3813 101.916C59.9146 102.065 59.42 102.14 58.8973 102.14ZM63.5999 102V96.246H62.2419V94.93H64.0899L63.5999 95.378V94.3C63.5999 93.4227 63.8192 92.76 64.2579 92.312C64.7059 91.864 65.3545 91.64 66.2039 91.64C66.4092 91.64 66.6239 91.654 66.8479 91.682C67.0812 91.71 67.2819 91.7613 67.4499 91.836V93.208C67.3285 93.1613 67.1839 93.124 67.0159 93.096C66.8479 93.068 66.6845 93.054 66.5259 93.054C66.1619 93.054 65.8725 93.1613 65.6579 93.376C65.4432 93.5813 65.3359 93.9173 65.3359 94.384V95.238L65.0839 94.93H69.9979V102H68.2479V96.246H65.3499V102H63.5999ZM68.1499 93.6V91.892H70.0959V93.6H68.1499ZM71.9012 102V96.694C71.9012 96.4047 71.8919 96.1107 71.8732 95.812C71.8546 95.5133 71.8266 95.2193 71.7892 94.93H73.4832L73.6232 96.33H73.4552C73.6792 95.8353 74.0106 95.4573 74.4492 95.196C74.8879 94.9253 75.3966 94.79 75.9752 94.79C76.8059 94.79 77.4312 95.0233 77.8512 95.49C78.2712 95.9567 78.4812 96.6847 78.4812 97.674V102H76.7312V97.758C76.7312 97.1887 76.6192 96.7827 76.3952 96.54C76.1806 96.288 75.8539 96.162 75.4152 96.162C74.8739 96.162 74.4446 96.33 74.1272 96.666C73.8099 97.002 73.6512 97.45 73.6512 98.01V102H71.9012ZM80.3368 102V94.93H82.0868V102H80.3368ZM80.2388 93.6V91.892H82.1848V93.6H80.2388ZM86.7312 102.14C86.1152 102.14 85.5692 101.995 85.0932 101.706C84.6265 101.407 84.2625 100.983 84.0012 100.432C83.7398 99.8813 83.6092 99.2233 83.6092 98.458C83.6092 97.6927 83.7398 97.0393 84.0012 96.498C84.2625 95.9473 84.6265 95.5273 85.0932 95.238C85.5692 94.9393 86.1152 94.79 86.7312 94.79C87.3192 94.79 87.8372 94.9347 88.2852 95.224C88.7425 95.504 89.0458 95.8867 89.1952 96.372H89.0132V91.696H90.7632V102H89.0412V100.502H89.2092C89.0598 101.006 88.7565 101.407 88.2992 101.706C87.8512 101.995 87.3285 102.14 86.7312 102.14ZM87.2212 100.796C87.7718 100.796 88.2152 100.605 88.5512 100.222C88.8872 99.83 89.0552 99.242 89.0552 98.458C89.0552 97.674 88.8872 97.0907 88.5512 96.708C88.2152 96.3253 87.7718 96.134 87.2212 96.134C86.6705 96.134 86.2225 96.3253 85.8772 96.708C85.5412 97.0907 85.3732 97.674 85.3732 98.458C85.3732 99.242 85.5412 99.83 85.8772 100.222C86.2225 100.605 86.6705 100.796 87.2212 100.796ZM95.3988 102.14C94.7828 102.14 94.2415 101.995 93.7748 101.706C93.3081 101.407 92.9441 100.983 92.6828 100.432C92.4215 99.8813 92.2908 99.2233 92.2908 98.458C92.2908 97.6927 92.4215 97.0393 92.6828 96.498C92.9441 95.9473 93.3081 95.5273 93.7748 95.238C94.2415 94.9393 94.7828 94.79 95.3988 94.79C95.9961 94.79 96.5188 94.9393 96.9668 95.238C97.4241 95.5273 97.7275 95.9193 97.8768 96.414H97.7228L97.8768 94.93H99.5568C99.5288 95.2193 99.5008 95.5133 99.4728 95.812C99.4541 96.1107 99.4448 96.4047 99.4448 96.694V102H97.7088L97.6948 100.544H97.8628C97.7135 101.029 97.4101 101.417 96.9528 101.706C96.4955 101.995 95.9775 102.14 95.3988 102.14ZM95.8888 100.796C96.4395 100.796 96.8828 100.605 97.2188 100.222C97.5548 99.83 97.7228 99.242 97.7228 98.458C97.7228 97.674 97.5548 97.0907 97.2188 96.708C96.8828 96.3253 96.4395 96.134 95.8888 96.134C95.3381 96.134 94.8948 96.3253 94.5588 96.708C94.2228 97.0907 94.0548 97.674 94.0548 98.458C94.0548 99.242 94.2181 99.83 94.5448 100.222C94.8808 100.605 95.3288 100.796 95.8888 100.796ZM103.87 102.14C103.264 102.14 102.704 102.07 102.19 101.93C101.686 101.781 101.262 101.575 100.916 101.314L101.406 100.138C101.761 100.381 102.153 100.567 102.582 100.698C103.012 100.829 103.446 100.894 103.884 100.894C104.351 100.894 104.696 100.815 104.92 100.656C105.154 100.497 105.27 100.283 105.27 100.012C105.27 99.7973 105.196 99.6293 105.046 99.508C104.906 99.3773 104.678 99.2793 104.36 99.214L102.96 98.948C102.363 98.8173 101.906 98.5933 101.588 98.276C101.28 97.9587 101.126 97.5433 101.126 97.03C101.126 96.5913 101.243 96.204 101.476 95.868C101.719 95.532 102.06 95.2707 102.498 95.084C102.946 94.888 103.469 94.79 104.066 94.79C104.589 94.79 105.079 94.86 105.536 95C106.003 95.14 106.395 95.35 106.712 95.63L106.208 96.764C105.919 96.5307 105.588 96.3487 105.214 96.218C104.841 96.0873 104.477 96.022 104.122 96.022C103.637 96.022 103.282 96.1107 103.058 96.288C102.834 96.456 102.722 96.6753 102.722 96.946C102.722 97.1513 102.788 97.324 102.918 97.464C103.058 97.5947 103.273 97.6927 103.562 97.758L104.962 98.024C105.588 98.1453 106.059 98.36 106.376 98.668C106.703 98.9667 106.866 99.3773 106.866 99.9C106.866 100.367 106.74 100.768 106.488 101.104C106.236 101.44 105.886 101.697 105.438 101.874C104.99 102.051 104.468 102.14 103.87 102.14Z" fill="white"/>
</svg>
