<svg width="125" height="108" viewBox="0 0 125 108" fill="none" xmlns="http://www.w3.org/2000/svg">
<rect width="125" height="108" rx="6" fill="#0077FF"/>
<path d="M62.5 34.5H75.2083V47.2083H62.5V34.5ZM80.2917 11.625H77.75V6.54166H72.6667V11.625H52.3333V6.54166H47.25V11.625H44.7083C41.9125 11.625 39.625 13.9125 39.625 16.7083V52.2917C39.625 55.0875 41.9125 57.375 44.7083 57.375H80.2917C83.0875 57.375 85.375 55.0875 85.375 52.2917V16.7083C85.375 13.9125 83.0875 11.625 80.2917 11.625ZM80.2917 16.7083V21.7917H44.7083V16.7083H80.2917ZM44.7083 52.2917V26.875H80.2917V52.2917H44.7083Z" fill="white"/>
<path d="M34.9699 84V74.13H41.4799V75.544H36.7759V78.344H41.1579V79.758H36.7759V84H34.9699ZM46.0116 84.14C44.8262 84.14 43.8976 83.8133 43.2256 83.16C42.5536 82.5067 42.2176 81.6107 42.2176 80.472C42.2176 79.7347 42.3622 79.0907 42.6516 78.54C42.9409 77.9893 43.3422 77.56 43.8556 77.252C44.3782 76.944 44.9849 76.79 45.6756 76.79C46.3569 76.79 46.9262 76.9347 47.3836 77.224C47.8409 77.5133 48.1862 77.9193 48.4196 78.442C48.6622 78.9647 48.7836 79.576 48.7836 80.276V80.738H43.6316V79.814H47.5376L47.2996 80.01C47.2996 79.3567 47.1596 78.8573 46.8796 78.512C46.6089 78.1667 46.2122 77.994 45.6896 77.994C45.1109 77.994 44.6629 78.1993 44.3456 78.61C44.0376 79.0207 43.8836 79.5947 43.8836 80.332V80.514C43.8836 81.2793 44.0702 81.8533 44.4436 82.236C44.8262 82.6093 45.3629 82.796 46.0536 82.796C46.4549 82.796 46.8282 82.7447 47.1736 82.642C47.5282 82.53 47.8642 82.3527 48.1816 82.11L48.6996 83.286C48.3636 83.5567 47.9622 83.7667 47.4956 83.916C47.0289 84.0653 46.5342 84.14 46.0116 84.14ZM50.2515 84V78.736C50.2515 78.4373 50.2421 78.134 50.2235 77.826C50.2141 77.518 50.1908 77.2193 50.1535 76.93H51.8475L52.0435 78.862H51.7635C51.8568 78.3953 52.0108 78.008 52.2255 77.7C52.4495 77.392 52.7201 77.1633 53.0375 77.014C53.3548 76.8647 53.7001 76.79 54.0735 76.79C54.2415 76.79 54.3768 76.7993 54.4795 76.818C54.5821 76.8273 54.6848 76.8507 54.7875 76.888L54.7735 78.428C54.5961 78.3533 54.4421 78.3067 54.3115 78.288C54.1901 78.2693 54.0361 78.26 53.8495 78.26C53.4481 78.26 53.1075 78.344 52.8275 78.512C52.5568 78.68 52.3515 78.9133 52.2115 79.212C52.0808 79.5107 52.0155 79.8513 52.0155 80.234V84H50.2515ZM55.7616 84V76.93H57.5116V84H55.7616ZM55.6636 75.6V73.892H57.6096V75.6H55.6636ZM62.142 84.14C61.526 84.14 60.9846 83.9953 60.518 83.706C60.0513 83.4073 59.6873 82.9827 59.426 82.432C59.1646 81.8813 59.034 81.2233 59.034 80.458C59.034 79.6927 59.1646 79.0393 59.426 78.498C59.6873 77.9473 60.0513 77.5273 60.518 77.238C60.9846 76.9393 61.526 76.79 62.142 76.79C62.7393 76.79 63.262 76.9393 63.71 77.238C64.1673 77.5273 64.4706 77.9193 64.62 78.414H64.466L64.62 76.93H66.3C66.272 77.2193 66.244 77.5133 66.216 77.812C66.1973 78.1107 66.188 78.4047 66.188 78.694V84H64.452L64.438 82.544H64.606C64.4566 83.0293 64.1533 83.4167 63.696 83.706C63.2386 83.9953 62.7206 84.14 62.142 84.14ZM62.632 82.796C63.1826 82.796 63.626 82.6047 63.962 82.222C64.298 81.83 64.466 81.242 64.466 80.458C64.466 79.674 64.298 79.0907 63.962 78.708C63.626 78.3253 63.1826 78.134 62.632 78.134C62.0813 78.134 61.638 78.3253 61.302 78.708C60.966 79.0907 60.798 79.674 60.798 80.458C60.798 81.242 60.9613 81.83 61.288 82.222C61.624 82.6047 62.072 82.796 62.632 82.796ZM70.8376 84.14C70.2216 84.14 69.6756 83.9953 69.1996 83.706C68.7329 83.4073 68.3689 82.9827 68.1076 82.432C67.8463 81.8813 67.7156 81.2233 67.7156 80.458C67.7156 79.6927 67.8463 79.0393 68.1076 78.498C68.3689 77.9473 68.7329 77.5273 69.1996 77.238C69.6756 76.9393 70.2216 76.79 70.8376 76.79C71.4256 76.79 71.9436 76.9347 72.3916 77.224C72.8489 77.504 73.1523 77.8867 73.3016 78.372H73.1196V73.696H74.8696V84H73.1476V82.502H73.3156C73.1663 83.006 72.8629 83.4073 72.4056 83.706C71.9576 83.9953 71.4349 84.14 70.8376 84.14ZM71.3276 82.796C71.8783 82.796 72.3216 82.6047 72.6576 82.222C72.9936 81.83 73.1616 81.242 73.1616 80.458C73.1616 79.674 72.9936 79.0907 72.6576 78.708C72.3216 78.3253 71.8783 78.134 71.3276 78.134C70.7769 78.134 70.3289 78.3253 69.9836 78.708C69.6476 79.0907 69.4796 79.674 69.4796 80.458C69.4796 81.242 69.6476 81.83 69.9836 82.222C70.3289 82.6047 70.7769 82.796 71.3276 82.796ZM79.9672 84.14C79.2392 84.14 78.6092 83.9907 78.0772 83.692C77.5452 83.3933 77.1299 82.9687 76.8312 82.418C76.5419 81.8673 76.3972 81.214 76.3972 80.458C76.3972 79.702 76.5419 79.0533 76.8312 78.512C77.1299 77.9613 77.5452 77.5367 78.0772 77.238C78.6092 76.9393 79.2392 76.79 79.9672 76.79C80.6952 76.79 81.3252 76.9393 81.8572 77.238C82.3986 77.5367 82.8139 77.9613 83.1032 78.512C83.4019 79.0533 83.5512 79.702 83.5512 80.458C83.5512 81.214 83.4019 81.8673 83.1032 82.418C82.8139 82.9687 82.3986 83.3933 81.8572 83.692C81.3252 83.9907 80.6952 84.14 79.9672 84.14ZM79.9672 82.796C80.5179 82.796 80.9566 82.6047 81.2832 82.222C81.6099 81.83 81.7732 81.242 81.7732 80.458C81.7732 79.674 81.6099 79.0907 81.2832 78.708C80.9566 78.3253 80.5179 78.134 79.9672 78.134C79.4166 78.134 78.9779 78.3253 78.6512 78.708C78.3246 79.0907 78.1612 79.674 78.1612 80.458C78.1612 81.242 78.3246 81.83 78.6512 82.222C78.9779 82.6047 79.4166 82.796 79.9672 82.796ZM87.5804 84.14C86.9737 84.14 86.4137 84.07 85.9004 83.93C85.3964 83.7807 84.9717 83.5753 84.6264 83.314L85.1164 82.138C85.4711 82.3807 85.8631 82.5673 86.2924 82.698C86.7217 82.8287 87.1557 82.894 87.5944 82.894C88.0611 82.894 88.4064 82.8147 88.6304 82.656C88.8637 82.4973 88.9804 82.2827 88.9804 82.012C88.9804 81.7973 88.9057 81.6293 88.7564 81.508C88.6164 81.3773 88.3877 81.2793 88.0704 81.214L86.6704 80.948C86.0731 80.8173 85.6157 80.5933 85.2984 80.276C84.9904 79.9587 84.8364 79.5433 84.8364 79.03C84.8364 78.5913 84.9531 78.204 85.1864 77.868C85.4291 77.532 85.7697 77.2707 86.2084 77.084C86.6564 76.888 87.1791 76.79 87.7764 76.79C88.2991 76.79 88.7891 76.86 89.2464 77C89.7131 77.14 90.1051 77.35 90.4224 77.63L89.9184 78.764C89.6291 78.5307 89.2977 78.3487 88.9244 78.218C88.5511 78.0873 88.1871 78.022 87.8324 78.022C87.3471 78.022 86.9924 78.1107 86.7684 78.288C86.5444 78.456 86.4324 78.6753 86.4324 78.946C86.4324 79.1513 86.4977 79.324 86.6284 79.464C86.7684 79.5947 86.9831 79.6927 87.2724 79.758L88.6724 80.024C89.2977 80.1453 89.7691 80.36 90.0864 80.668C90.4131 80.9667 90.5764 81.3773 90.5764 81.9C90.5764 82.3667 90.4504 82.768 90.1984 83.104C89.9464 83.44 89.5964 83.6967 89.1484 83.874C88.7004 84.0513 88.1777 84.14 87.5804 84.14Z" fill="white"/>
</svg>
