<svg width="125" height="108" viewBox="0 0 125 108" fill="none" xmlns="http://www.w3.org/2000/svg">
<rect width="125" height="108" rx="6" fill="#0077FF"/>
<path d="M51.0625 42.3125H66.3125V46.125H51.0625V42.3125ZM51.0625 32.7812H73.9375V36.5938H51.0625V32.7812ZM51.0625 51.8438H60.5938V55.6562H51.0625V51.8438Z" fill="white"/>
<path d="M79.6562 17.5312H73.9375V15.625C73.9375 14.6139 73.5358 13.6441 72.8208 12.9292C72.1059 12.2142 71.1361 11.8125 70.125 11.8125H54.875C53.8639 11.8125 52.8941 12.2142 52.1792 12.9292C51.4642 13.6441 51.0625 14.6139 51.0625 15.625V17.5312H45.3438C44.3326 17.5312 43.3629 17.9329 42.6479 18.6479C41.9329 19.3629 41.5312 20.3326 41.5312 21.3438V61.375C41.5312 62.3861 41.9329 63.3559 42.6479 64.0708C43.3629 64.7858 44.3326 65.1875 45.3438 65.1875H79.6562C80.6674 65.1875 81.6371 64.7858 82.3521 64.0708C83.0671 63.3559 83.4688 62.3861 83.4688 61.375V21.3438C83.4688 20.3326 83.0671 19.3629 82.3521 18.6479C81.6371 17.9329 80.6674 17.5312 79.6562 17.5312ZM54.875 15.625H70.125V23.25H54.875V15.625ZM79.6562 61.375H45.3438V21.3438H51.0625V27.0625H73.9375V21.3438H79.6562V61.375Z" fill="white"/>
<path d="M39.174 88V78.13H40.98V86.474H45.628V88H39.174ZM49.598 88.14C48.982 88.14 48.4407 87.9953 47.974 87.706C47.5073 87.4073 47.1433 86.9827 46.882 86.432C46.6207 85.8813 46.49 85.2233 46.49 84.458C46.49 83.6927 46.6207 83.0393 46.882 82.498C47.1433 81.9473 47.5073 81.5273 47.974 81.238C48.4407 80.9393 48.982 80.79 49.598 80.79C50.1953 80.79 50.718 80.9393 51.166 81.238C51.6233 81.5273 51.9267 81.9193 52.076 82.414H51.922L52.076 80.93H53.756C53.728 81.2193 53.7 81.5133 53.672 81.812C53.6533 82.1107 53.644 82.4047 53.644 82.694V88H51.908L51.894 86.544H52.062C51.9127 87.0293 51.6093 87.4167 51.152 87.706C50.6947 87.9953 50.1767 88.14 49.598 88.14ZM50.088 86.796C50.6387 86.796 51.082 86.6047 51.418 86.222C51.754 85.83 51.922 85.242 51.922 84.458C51.922 83.674 51.754 83.0907 51.418 82.708C51.082 82.3253 50.6387 82.134 50.088 82.134C49.5373 82.134 49.094 82.3253 48.758 82.708C48.422 83.0907 48.254 83.674 48.254 84.458C48.254 85.242 48.4173 85.83 48.744 86.222C49.08 86.6047 49.528 86.796 50.088 86.796ZM58.0977 88.14C57.2297 88.14 56.581 87.902 56.1517 87.426C55.7223 86.95 55.5077 86.222 55.5077 85.242V80.93H57.2577V85.228C57.2577 85.7507 57.365 86.138 57.5797 86.39C57.7943 86.6327 58.121 86.754 58.5597 86.754C59.0543 86.754 59.4557 86.586 59.7637 86.25C60.081 85.914 60.2397 85.4707 60.2397 84.92V80.93H61.9897V88H60.2817V86.558H60.4777C60.2723 87.062 59.9597 87.454 59.5397 87.734C59.129 88.0047 58.6483 88.14 58.0977 88.14ZM66.6335 88.14C66.0175 88.14 65.4715 87.9953 64.9955 87.706C64.5288 87.4073 64.1648 86.9827 63.9035 86.432C63.6422 85.8813 63.5115 85.2233 63.5115 84.458C63.5115 83.6927 63.6422 83.0393 63.9035 82.498C64.1648 81.9473 64.5288 81.5273 64.9955 81.238C65.4715 80.9393 66.0175 80.79 66.6335 80.79C67.2215 80.79 67.7395 80.9347 68.1875 81.224C68.6448 81.504 68.9482 81.8867 69.0975 82.372H68.9155V77.696H70.6655V88H68.9435V86.502H69.1115C68.9622 87.006 68.6588 87.4073 68.2015 87.706C67.7535 87.9953 67.2308 88.14 66.6335 88.14ZM67.1235 86.796C67.6742 86.796 68.1175 86.6047 68.4535 86.222C68.7895 85.83 68.9575 85.242 68.9575 84.458C68.9575 83.674 68.7895 83.0907 68.4535 82.708C68.1175 82.3253 67.6742 82.134 67.1235 82.134C66.5728 82.134 66.1248 82.3253 65.7795 82.708C65.4435 83.0907 65.2755 83.674 65.2755 84.458C65.2755 85.242 65.4435 85.83 65.7795 86.222C66.1248 86.6047 66.5728 86.796 67.1235 86.796ZM75.7631 88.14C75.0351 88.14 74.4051 87.9907 73.8731 87.692C73.3411 87.3933 72.9258 86.9687 72.6271 86.418C72.3378 85.8673 72.1931 85.214 72.1931 84.458C72.1931 83.702 72.3378 83.0533 72.6271 82.512C72.9258 81.9613 73.3411 81.5367 73.8731 81.238C74.4051 80.9393 75.0351 80.79 75.7631 80.79C76.4911 80.79 77.1211 80.9393 77.6531 81.238C78.1945 81.5367 78.6098 81.9613 78.8991 82.512C79.1978 83.0533 79.3471 83.702 79.3471 84.458C79.3471 85.214 79.1978 85.8673 78.8991 86.418C78.6098 86.9687 78.1945 87.3933 77.6531 87.692C77.1211 87.9907 76.4911 88.14 75.7631 88.14ZM75.7631 86.796C76.3138 86.796 76.7525 86.6047 77.0791 86.222C77.4058 85.83 77.5691 85.242 77.5691 84.458C77.5691 83.674 77.4058 83.0907 77.0791 82.708C76.7525 82.3253 76.3138 82.134 75.7631 82.134C75.2125 82.134 74.7738 82.3253 74.4471 82.708C74.1205 83.0907 73.9571 83.674 73.9571 84.458C73.9571 85.242 74.1205 85.83 74.4471 86.222C74.7738 86.6047 75.2125 86.796 75.7631 86.796ZM83.3763 88.14C82.7696 88.14 82.2096 88.07 81.6963 87.93C81.1923 87.7807 80.7676 87.5753 80.4223 87.314L80.9123 86.138C81.267 86.3807 81.659 86.5673 82.0883 86.698C82.5176 86.8287 82.9516 86.894 83.3903 86.894C83.857 86.894 84.2023 86.8147 84.4263 86.656C84.6596 86.4973 84.7763 86.2827 84.7763 86.012C84.7763 85.7973 84.7016 85.6293 84.5523 85.508C84.4123 85.3773 84.1836 85.2793 83.8663 85.214L82.4663 84.948C81.869 84.8173 81.4116 84.5933 81.0943 84.276C80.7863 83.9587 80.6323 83.5433 80.6323 83.03C80.6323 82.5913 80.749 82.204 80.9823 81.868C81.225 81.532 81.5656 81.2707 82.0043 81.084C82.4523 80.888 82.975 80.79 83.5723 80.79C84.095 80.79 84.585 80.86 85.0423 81C85.509 81.14 85.901 81.35 86.2183 81.63L85.7143 82.764C85.425 82.5307 85.0936 82.3487 84.7203 82.218C84.347 82.0873 83.983 82.022 83.6283 82.022C83.143 82.022 82.7883 82.1107 82.5643 82.288C82.3403 82.456 82.2283 82.6753 82.2283 82.946C82.2283 83.1513 82.2936 83.324 82.4243 83.464C82.5643 83.5947 82.779 83.6927 83.0683 83.758L84.4683 84.024C85.0936 84.1453 85.565 84.36 85.8823 84.668C86.209 84.9667 86.3723 85.3773 86.3723 85.9C86.3723 86.3667 86.2463 86.768 85.9943 87.104C85.7423 87.44 85.3923 87.6967 84.9443 87.874C84.4963 88.0513 83.9736 88.14 83.3763 88.14Z" fill="white"/>
</svg>
