<svg width="125" height="108" viewBox="0 0 125 108" fill="none" xmlns="http://www.w3.org/2000/svg">
<rect width="125" height="108" rx="6" fill="#0077FF"/>
<path d="M67.5833 9.08334L82.8333 24.3333V54.8333C82.8333 56.1815 82.2977 57.4745 81.3444 58.4278C80.3911 59.3811 79.0981 59.9167 77.75 59.9167H47.25C45.9018 59.9167 44.6088 59.3811 43.6555 58.4278C42.7022 57.4745 42.1666 56.1815 42.1666 54.8333V14.1667C42.1666 12.8185 42.7022 11.5255 43.6555 10.5722C44.6088 9.61891 45.9018 9.08334 47.25 9.08334H67.5833ZM77.75 54.8333V26.875H65.0416V14.1667H47.25V54.8333H77.75ZM61.2291 29.4167C67.5833 29.4167 72.6666 34.5 72.6666 40.8542C72.6666 47.2083 67.5833 52.2917 61.2291 52.2917C54.875 52.2917 49.7916 47.2083 49.7916 40.8542C49.7916 34.5 54.875 29.4167 61.2291 29.4167ZM61.2291 33.2292C59.8058 33.2292 58.4841 33.6104 57.4166 34.2967L67.7866 44.6667C68.4729 43.5992 68.8541 42.2775 68.8541 40.8542C68.8541 38.8319 68.0508 36.8925 66.6208 35.4625C65.1909 34.0325 63.2514 33.2292 61.2291 33.2292ZM53.6041 40.8542C53.6041 42.8765 54.4075 44.8159 55.8374 46.2459C57.2674 47.6758 59.2069 48.4792 61.2291 48.4792C62.6525 48.4792 63.9741 48.0979 65.0416 47.4117L54.6716 37.0417C53.9854 38.1092 53.6041 39.4308 53.6041 40.8542Z" fill="white"/>
<path d="M30.9507 79V69.13H32.5327L36.1587 77.292H35.7247L39.3507 69.13H40.9187V79H39.2807V71.678H39.7847L36.4667 79H35.3887L32.0707 71.678H32.5887V79H30.9507ZM46.1704 79.14C45.4424 79.14 44.8124 78.9907 44.2804 78.692C43.7484 78.3933 43.333 77.9687 43.0344 77.418C42.745 76.8673 42.6004 76.214 42.6004 75.458C42.6004 74.702 42.745 74.0533 43.0344 73.512C43.333 72.9613 43.7484 72.5367 44.2804 72.238C44.8124 71.9393 45.4424 71.79 46.1704 71.79C46.8984 71.79 47.5284 71.9393 48.0604 72.238C48.6017 72.5367 49.017 72.9613 49.3064 73.512C49.605 74.0533 49.7544 74.702 49.7544 75.458C49.7544 76.214 49.605 76.8673 49.3064 77.418C49.017 77.9687 48.6017 78.3933 48.0604 78.692C47.5284 78.9907 46.8984 79.14 46.1704 79.14ZM46.1704 77.796C46.721 77.796 47.1597 77.6047 47.4864 77.222C47.813 76.83 47.9764 76.242 47.9764 75.458C47.9764 74.674 47.813 74.0907 47.4864 73.708C47.1597 73.3253 46.721 73.134 46.1704 73.134C45.6197 73.134 45.181 73.3253 44.8544 73.708C44.5277 74.0907 44.3644 74.674 44.3644 75.458C44.3644 76.242 44.5277 76.83 44.8544 77.222C45.181 77.6047 45.6197 77.796 46.1704 77.796ZM54.2192 79.14C53.3792 79.14 52.7445 78.9207 52.3152 78.482C51.8858 78.0433 51.6712 77.3853 51.6712 76.508V73.246H50.3132V71.93H51.6712V70.124L53.4212 69.676V71.93H55.3112V73.246H53.4212V76.396C53.4212 76.8813 53.5145 77.222 53.7012 77.418C53.8878 77.614 54.1445 77.712 54.4712 77.712C54.6485 77.712 54.7978 77.698 54.9192 77.67C55.0498 77.642 55.1758 77.6047 55.2972 77.558V78.944C55.1385 79.0093 54.9612 79.056 54.7652 79.084C54.5785 79.1213 54.3965 79.14 54.2192 79.14ZM56.4999 79V71.93H58.2499V79H56.4999ZM56.4019 70.6V68.892H58.3479V70.6H56.4019ZM62.2222 79L59.1702 71.93H61.0322L63.2442 77.46H62.8102L65.0782 71.93H66.8282L63.7622 79H62.2222ZM70.8208 79.14C70.0928 79.14 69.4628 78.9907 68.9308 78.692C68.3988 78.3933 67.9834 77.9687 67.6848 77.418C67.3954 76.8673 67.2508 76.214 67.2508 75.458C67.2508 74.702 67.3954 74.0533 67.6848 73.512C67.9834 72.9613 68.3988 72.5367 68.9308 72.238C69.4628 71.9393 70.0928 71.79 70.8208 71.79C71.5488 71.79 72.1788 71.9393 72.7108 72.238C73.2521 72.5367 73.6674 72.9613 73.9568 73.512C74.2554 74.0533 74.4048 74.702 74.4048 75.458C74.4048 76.214 74.2554 76.8673 73.9568 77.418C73.6674 77.9687 73.2521 78.3933 72.7108 78.692C72.1788 78.9907 71.5488 79.14 70.8208 79.14ZM70.8208 77.796C71.3714 77.796 71.8101 77.6047 72.1368 77.222C72.4634 76.83 72.6268 76.242 72.6268 75.458C72.6268 74.674 72.4634 74.0907 72.1368 73.708C71.8101 73.3253 71.3714 73.134 70.8208 73.134C70.2701 73.134 69.8314 73.3253 69.5048 73.708C69.1781 74.0907 69.0148 74.674 69.0148 75.458C69.0148 76.242 69.1781 76.83 69.5048 77.222C69.8314 77.6047 70.2701 77.796 70.8208 77.796ZM82.4997 79.14C81.8837 79.14 81.3377 78.9953 80.8617 78.706C80.395 78.4073 80.031 77.9827 79.7697 77.432C79.5084 76.8813 79.3777 76.2233 79.3777 75.458C79.3777 74.6927 79.5084 74.0393 79.7697 73.498C80.031 72.9473 80.395 72.5273 80.8617 72.238C81.3377 71.9393 81.8837 71.79 82.4997 71.79C83.0877 71.79 83.6057 71.9347 84.0537 72.224C84.511 72.504 84.8144 72.8867 84.9637 73.372H84.7817V68.696H86.5317V79H84.8097V77.502H84.9777C84.8284 78.006 84.525 78.4073 84.0677 78.706C83.6197 78.9953 83.097 79.14 82.4997 79.14ZM82.9897 77.796C83.5404 77.796 83.9837 77.6047 84.3197 77.222C84.6557 76.83 84.8237 76.242 84.8237 75.458C84.8237 74.674 84.6557 74.0907 84.3197 73.708C83.9837 73.3253 83.5404 73.134 82.9897 73.134C82.439 73.134 81.991 73.3253 81.6457 73.708C81.3097 74.0907 81.1417 74.674 81.1417 75.458C81.1417 76.242 81.3097 76.83 81.6457 77.222C81.991 77.6047 82.439 77.796 82.9897 77.796ZM91.8534 79.14C90.668 79.14 89.7394 78.8133 89.0674 78.16C88.3954 77.5067 88.0594 76.6107 88.0594 75.472C88.0594 74.7347 88.204 74.0907 88.4934 73.54C88.7827 72.9893 89.184 72.56 89.6974 72.252C90.22 71.944 90.8267 71.79 91.5174 71.79C92.1987 71.79 92.768 71.9347 93.2254 72.224C93.6827 72.5133 94.028 72.9193 94.2614 73.442C94.504 73.9647 94.6254 74.576 94.6254 75.276V75.738H89.4734V74.814H93.3794L93.1414 75.01C93.1414 74.3567 93.0014 73.8573 92.7214 73.512C92.4507 73.1667 92.054 72.994 91.5314 72.994C90.9527 72.994 90.5047 73.1993 90.1874 73.61C89.8794 74.0207 89.7254 74.5947 89.7254 75.332V75.514C89.7254 76.2793 89.912 76.8533 90.2854 77.236C90.668 77.6093 91.2047 77.796 91.8954 77.796C92.2967 77.796 92.67 77.7447 93.0154 77.642C93.37 77.53 93.706 77.3527 94.0234 77.11L94.5414 78.286C94.2054 78.5567 93.804 78.7667 93.3374 78.916C92.8707 79.0653 92.376 79.14 91.8534 79.14ZM20.0652 97.14C19.3372 97.14 18.6979 96.9907 18.1472 96.692C17.6059 96.3933 17.1859 95.9687 16.8872 95.418C16.5886 94.858 16.4392 94.1953 16.4392 93.43C16.4392 92.6647 16.5886 92.0113 16.8872 91.47C17.1952 90.9287 17.6199 90.5133 18.1612 90.224C18.7026 89.9347 19.3372 89.79 20.0652 89.79C20.5319 89.79 20.9846 89.8647 21.4232 90.014C21.8712 90.154 22.2352 90.3593 22.5152 90.63L21.9832 91.848C21.7312 91.6147 21.4466 91.442 21.1292 91.33C20.8212 91.2087 20.5179 91.148 20.2192 91.148C19.5939 91.148 19.1039 91.344 18.7492 91.736C18.4039 92.128 18.2312 92.6973 18.2312 93.444C18.2312 94.1907 18.4039 94.7647 18.7492 95.166C19.1039 95.5673 19.5939 95.768 20.2192 95.768C20.5086 95.768 20.8072 95.712 21.1152 95.6C21.4326 95.488 21.7219 95.3153 21.9832 95.082L22.5152 96.286C22.2259 96.5567 21.8572 96.7667 21.4092 96.916C20.9706 97.0653 20.5226 97.14 20.0652 97.14ZM26.5609 97.14C25.9449 97.14 25.4036 96.9953 24.9369 96.706C24.4702 96.4073 24.1062 95.9827 23.8449 95.432C23.5836 94.8813 23.4529 94.2233 23.4529 93.458C23.4529 92.6927 23.5836 92.0393 23.8449 91.498C24.1062 90.9473 24.4702 90.5273 24.9369 90.238C25.4036 89.9393 25.9449 89.79 26.5609 89.79C27.1582 89.79 27.6809 89.9393 28.1289 90.238C28.5862 90.5273 28.8896 90.9193 29.0389 91.414H28.8849L29.0389 89.93H30.7189C30.6909 90.2193 30.6629 90.5133 30.6349 90.812C30.6162 91.1107 30.6069 91.4047 30.6069 91.694V97H28.8709L28.8569 95.544H29.0249C28.8756 96.0293 28.5722 96.4167 28.1149 96.706C27.6576 96.9953 27.1396 97.14 26.5609 97.14ZM27.0509 95.796C27.6016 95.796 28.0449 95.6047 28.3809 95.222C28.7169 94.83 28.8849 94.242 28.8849 93.458C28.8849 92.674 28.7169 92.0907 28.3809 91.708C28.0449 91.3253 27.6016 91.134 27.0509 91.134C26.5002 91.134 26.0569 91.3253 25.7209 91.708C25.3849 92.0907 25.2169 92.674 25.2169 93.458C25.2169 94.242 25.3802 94.83 25.7069 95.222C26.0429 95.6047 26.4909 95.796 27.0509 95.796ZM32.5125 97V91.694C32.5125 91.4047 32.5032 91.1107 32.4845 90.812C32.4659 90.5133 32.4379 90.2193 32.4005 89.93H34.0945L34.2345 91.33H34.0665C34.2905 90.8353 34.6219 90.4573 35.0605 90.196C35.4992 89.9253 36.0079 89.79 36.5865 89.79C37.4172 89.79 38.0425 90.0233 38.4625 90.49C38.8825 90.9567 39.0925 91.6847 39.0925 92.674V97H37.3425V92.758C37.3425 92.1887 37.2305 91.7827 37.0065 91.54C36.7919 91.288 36.4652 91.162 36.0265 91.162C35.4852 91.162 35.0559 91.33 34.7385 91.666C34.4212 92.002 34.2625 92.45 34.2625 93.01V97H32.5125ZM44.1961 97.14C43.4681 97.14 42.8288 96.9907 42.2781 96.692C41.7368 96.3933 41.3168 95.9687 41.0181 95.418C40.7194 94.858 40.5701 94.1953 40.5701 93.43C40.5701 92.6647 40.7194 92.0113 41.0181 91.47C41.3261 90.9287 41.7508 90.5133 42.2921 90.224C42.8334 89.9347 43.4681 89.79 44.1961 89.79C44.6628 89.79 45.1154 89.8647 45.5541 90.014C46.0021 90.154 46.3661 90.3593 46.6461 90.63L46.1141 91.848C45.8621 91.6147 45.5774 91.442 45.2601 91.33C44.9521 91.2087 44.6488 91.148 44.3501 91.148C43.7248 91.148 43.2348 91.344 42.8801 91.736C42.5348 92.128 42.3621 92.6973 42.3621 93.444C42.3621 94.1907 42.5348 94.7647 42.8801 95.166C43.2348 95.5673 43.7248 95.768 44.3501 95.768C44.6394 95.768 44.9381 95.712 45.2461 95.6C45.5634 95.488 45.8528 95.3153 46.1141 95.082L46.6461 96.286C46.3568 96.5567 45.9881 96.7667 45.5401 96.916C45.1014 97.0653 44.6534 97.14 44.1961 97.14ZM51.2821 97.14C50.0967 97.14 49.1681 96.8133 48.4961 96.16C47.8241 95.5067 47.4881 94.6107 47.4881 93.472C47.4881 92.7347 47.6327 92.0907 47.9221 91.54C48.2114 90.9893 48.6127 90.56 49.1261 90.252C49.6487 89.944 50.2554 89.79 50.9461 89.79C51.6274 89.79 52.1967 89.9347 52.6541 90.224C53.1114 90.5133 53.4567 90.9193 53.6901 91.442C53.9327 91.9647 54.0541 92.576 54.0541 93.276V93.738H48.9021V92.814H52.8081L52.5701 93.01C52.5701 92.3567 52.4301 91.8573 52.1501 91.512C51.8794 91.1667 51.4827 90.994 50.9601 90.994C50.3814 90.994 49.9334 91.1993 49.6161 91.61C49.3081 92.0207 49.1541 92.5947 49.1541 93.332V93.514C49.1541 94.2793 49.3407 94.8533 49.7141 95.236C50.0967 95.6093 50.6334 95.796 51.3241 95.796C51.7254 95.796 52.0987 95.7447 52.4441 95.642C52.7987 95.53 53.1347 95.3527 53.4521 95.11L53.9701 96.286C53.6341 96.5567 53.2327 96.7667 52.7661 96.916C52.2994 97.0653 51.8047 97.14 51.2821 97.14ZM55.536 97V86.696H57.286V97H55.536ZM61.9164 97.14C61.3004 97.14 60.759 96.9953 60.2924 96.706C59.8257 96.4073 59.4617 95.9827 59.2004 95.432C58.939 94.8813 58.8084 94.2233 58.8084 93.458C58.8084 92.6927 58.939 92.0393 59.2004 91.498C59.4617 90.9473 59.8257 90.5273 60.2924 90.238C60.759 89.9393 61.3004 89.79 61.9164 89.79C62.5137 89.79 63.0364 89.9393 63.4844 90.238C63.9417 90.5273 64.245 90.9193 64.3944 91.414H64.2404L64.3944 89.93H66.0744C66.0464 90.2193 66.0184 90.5133 65.9904 90.812C65.9717 91.1107 65.9624 91.4047 65.9624 91.694V97H64.2264L64.2124 95.544H64.3804C64.231 96.0293 63.9277 96.4167 63.4704 96.706C63.013 96.9953 62.495 97.14 61.9164 97.14ZM62.4064 95.796C62.957 95.796 63.4004 95.6047 63.7364 95.222C64.0724 94.83 64.2404 94.242 64.2404 93.458C64.2404 92.674 64.0724 92.0907 63.7364 91.708C63.4004 91.3253 62.957 91.134 62.4064 91.134C61.8557 91.134 61.4124 91.3253 61.0764 91.708C60.7404 92.0907 60.5724 92.674 60.5724 93.458C60.5724 94.242 60.7357 94.83 61.0624 95.222C61.3984 95.6047 61.8464 95.796 62.4064 95.796ZM67.868 97V91.694C67.868 91.4047 67.8587 91.1107 67.84 90.812C67.8213 90.5133 67.7933 90.2193 67.756 89.93H69.45L69.59 91.33H69.422C69.618 90.8447 69.9167 90.4667 70.318 90.196C70.7287 89.9253 71.214 89.79 71.774 89.79C72.334 89.79 72.796 89.9253 73.16 90.196C73.5333 90.4573 73.7947 90.868 73.944 91.428H73.72C73.916 90.924 74.238 90.5273 74.686 90.238C75.134 89.9393 75.6473 89.79 76.226 89.79C77.0193 89.79 77.612 90.0233 78.004 90.49C78.396 90.9567 78.592 91.6847 78.592 92.674V97H76.842V92.744C76.842 92.184 76.7487 91.7827 76.562 91.54C76.3753 91.288 76.0767 91.162 75.666 91.162C75.1807 91.162 74.798 91.3347 74.518 91.68C74.238 92.016 74.098 92.4733 74.098 93.052V97H72.348V92.744C72.348 92.184 72.2547 91.7827 72.068 91.54C71.8813 91.288 71.5827 91.162 71.172 91.162C70.6867 91.162 70.304 91.3347 70.024 91.68C69.7533 92.016 69.618 92.4733 69.618 93.052V97H67.868ZM83.8758 97.14C82.6905 97.14 81.7618 96.8133 81.0898 96.16C80.4178 95.5067 80.0818 94.6107 80.0818 93.472C80.0818 92.7347 80.2265 92.0907 80.5158 91.54C80.8051 90.9893 81.2065 90.56 81.7198 90.252C82.2425 89.944 82.8491 89.79 83.5398 89.79C84.2211 89.79 84.7905 89.9347 85.2478 90.224C85.7051 90.5133 86.0505 90.9193 86.2838 91.442C86.5265 91.9647 86.6478 92.576 86.6478 93.276V93.738H81.4958V92.814H85.4018L85.1638 93.01C85.1638 92.3567 85.0238 91.8573 84.7438 91.512C84.4731 91.1667 84.0765 90.994 83.5538 90.994C82.9751 90.994 82.5271 91.1993 82.2098 91.61C81.9018 92.0207 81.7478 92.5947 81.7478 93.332V93.514C81.7478 94.2793 81.9345 94.8533 82.3078 95.236C82.6905 95.6093 83.2271 95.796 83.9178 95.796C84.3191 95.796 84.6925 95.7447 85.0378 95.642C85.3925 95.53 85.7285 95.3527 86.0458 95.11L86.5638 96.286C86.2278 96.5567 85.8265 96.7667 85.3598 96.916C84.8931 97.0653 84.3985 97.14 83.8758 97.14ZM88.1297 97V91.694C88.1297 91.4047 88.1204 91.1107 88.1017 90.812C88.0831 90.5133 88.0551 90.2193 88.0177 89.93H89.7117L89.8517 91.33H89.6837C89.9077 90.8353 90.2391 90.4573 90.6777 90.196C91.1164 89.9253 91.6251 89.79 92.2037 89.79C93.0344 89.79 93.6597 90.0233 94.0797 90.49C94.4997 90.9567 94.7097 91.6847 94.7097 92.674V97H92.9597V92.758C92.9597 92.1887 92.8477 91.7827 92.6237 91.54C92.4091 91.288 92.0824 91.162 91.6437 91.162C91.1024 91.162 90.6731 91.33 90.3557 91.666C90.0384 92.002 89.8797 92.45 89.8797 93.01V97H88.1297ZM99.5893 97.14C98.7493 97.14 98.1146 96.9207 97.6853 96.482C97.2559 96.0433 97.0413 95.3853 97.0413 94.508V91.246H95.6833V89.93H97.0413V88.124L98.7913 87.676V89.93H100.681V91.246H98.7913V94.396C98.7913 94.8813 98.8846 95.222 99.0713 95.418C99.2579 95.614 99.5146 95.712 99.8413 95.712C100.019 95.712 100.168 95.698 100.289 95.67C100.42 95.642 100.546 95.6047 100.667 95.558V96.944C100.509 97.0093 100.331 97.056 100.135 97.084C99.9486 97.1213 99.7666 97.14 99.5893 97.14ZM104.994 97.14C104.266 97.14 103.636 96.9907 103.104 96.692C102.572 96.3933 102.156 95.9687 101.858 95.418C101.568 94.8673 101.424 94.214 101.424 93.458C101.424 92.702 101.568 92.0533 101.858 91.512C102.156 90.9613 102.572 90.5367 103.104 90.238C103.636 89.9393 104.266 89.79 104.994 89.79C105.722 89.79 106.352 89.9393 106.884 90.238C107.425 90.5367 107.84 90.9613 108.13 91.512C108.428 92.0533 108.578 92.702 108.578 93.458C108.578 94.214 108.428 94.8673 108.13 95.418C107.84 95.9687 107.425 96.3933 106.884 96.692C106.352 96.9907 105.722 97.14 104.994 97.14ZM104.994 95.796C105.544 95.796 105.983 95.6047 106.31 95.222C106.636 94.83 106.8 94.242 106.8 93.458C106.8 92.674 106.636 92.0907 106.31 91.708C105.983 91.3253 105.544 91.134 104.994 91.134C104.443 91.134 104.004 91.3253 103.678 91.708C103.351 92.0907 103.188 92.674 103.188 93.458C103.188 94.242 103.351 94.83 103.678 95.222C104.004 95.6047 104.443 95.796 104.994 95.796Z" fill="white"/>
</svg>
