<svg width="125" height="108" viewBox="0 0 125 108" fill="none" xmlns="http://www.w3.org/2000/svg">
<rect width="125" height="108" rx="6" fill="#0077FF"/>
<path d="M88.8634 10.9491C88.1553 10.2408 87.3147 9.67904 86.3894 9.29573C85.4642 8.91243 84.4725 8.71515 83.4711 8.71515C82.4696 8.71515 81.4779 8.91243 80.5527 9.29573C79.6275 9.67904 78.7868 10.2408 78.0788 10.9491C77.3705 11.6571 76.8087 12.4978 76.4254 13.423C76.0421 14.3482 75.8448 15.3399 75.8448 16.3414C75.8448 17.3429 76.0421 18.3345 76.4254 19.2597C76.8087 20.185 77.3705 21.0256 78.0788 21.7337C78.1479 21.8028 78.2217 21.8695 78.2932 21.9362L71.9478 33.7216C70.0132 33.2498 67.971 33.5489 66.2529 34.5556L61.4444 29.7471C62.3904 28.1482 62.7201 26.2589 62.3716 24.434C62.0231 22.6092 61.0203 20.9744 59.5517 19.8366C58.083 18.6988 56.2495 18.1364 54.3955 18.2549C52.5414 18.3735 50.7945 19.1648 49.4826 20.4803C48.7744 21.1884 48.2126 22.029 47.8293 22.9543C47.446 23.8795 47.2487 24.8712 47.2487 25.8726C47.2487 26.8741 47.446 27.8658 47.8293 28.791C48.2126 29.7162 48.7744 30.5569 49.4826 31.2649C49.5517 31.334 49.6232 31.4008 49.6947 31.4675L43.3493 43.2552C42.0756 42.9418 40.7425 42.9621 39.479 43.3144C38.2155 43.6667 37.0642 44.339 36.1365 45.2663C35.0703 46.3328 34.3443 47.6914 34.0502 49.1705C33.7561 50.6496 33.9072 52.1826 34.4844 53.5758C35.0616 54.969 36.0389 56.1597 37.2928 56.9975C38.5467 57.8353 40.0208 58.2824 41.5288 58.2824C43.0368 58.2824 44.511 57.8353 45.7649 56.9975C47.0187 56.1597 47.9961 54.969 48.5732 53.5758C49.1504 52.1826 49.3015 50.6496 49.0074 49.1705C48.7134 47.6914 47.9873 46.3328 46.9211 45.2663C46.852 45.1972 46.7781 45.1305 46.7067 45.0638L53.0521 33.2784C53.6487 33.4245 54.2607 33.4989 54.8749 33.5C56.2363 33.5017 57.5733 33.1388 58.747 32.4492L63.5555 37.2577C62.8316 38.4863 62.4667 39.8933 62.5023 41.3189C62.5379 42.7444 62.9725 44.1314 63.7569 45.3224C64.5412 46.5133 65.6438 47.4605 66.9394 48.0562C68.235 48.652 69.6717 48.8725 71.0863 48.6927C72.5009 48.5129 73.8368 47.94 74.9422 47.0391C76.0476 46.1382 76.8782 44.9454 77.3396 43.5961C77.8011 42.2468 77.875 40.7952 77.5528 39.4061C77.2307 38.0169 76.5255 36.7459 75.5173 35.7375C75.4481 35.6684 75.3767 35.6017 75.3052 35.5349L81.6506 23.7495C82.2458 23.8946 82.8561 23.9682 83.4687 23.9688C84.9765 23.9685 86.4503 23.5213 87.704 22.6836C88.9576 21.8459 89.9347 20.6553 90.5119 19.2623C91.089 17.8694 91.2402 16.3366 90.9463 14.8578C90.6525 13.3789 89.9268 12.0203 88.861 10.9538L88.8634 10.9491ZM44.2238 53.356C43.5084 54.0711 42.5383 54.4727 41.5268 54.4724C40.5153 54.4722 39.5453 54.0702 38.8303 53.3548C38.1152 52.6394 37.7136 51.6693 37.7138 50.6578C37.7141 49.6463 38.1161 48.6764 38.8315 47.9613C39.1857 47.6072 39.6062 47.3264 40.0689 47.1349C40.5317 46.9433 41.0276 46.8448 41.5285 46.8449C42.0293 46.845 42.5252 46.9437 42.9879 47.1355C43.4505 47.3273 43.8709 47.6083 44.225 47.9625C44.579 48.3167 44.8599 48.7372 45.0514 49.2C45.243 49.6627 45.3415 50.1587 45.3414 50.6595C45.3413 51.1603 45.2425 51.6562 45.0508 52.1189C44.859 52.5816 44.578 53.0019 44.2238 53.356ZM52.1776 28.5747C51.8235 28.2207 51.5426 27.8004 51.3509 27.3378C51.1593 26.8752 51.0606 26.3793 51.0606 25.8786C51.0606 25.3778 51.1593 24.882 51.3509 24.4194C51.5426 23.9568 51.8235 23.5365 52.1776 23.1824C52.7108 22.6493 53.3901 22.2863 54.1297 22.1393C54.8692 21.9922 55.6357 22.0678 56.3323 22.3564C57.0289 22.645 57.6243 23.1336 58.0432 23.7606C58.4621 24.3875 58.6856 25.1246 58.6856 25.8786C58.6856 26.6326 58.4621 27.3697 58.0432 27.9966C57.6243 28.6236 57.0289 29.1122 56.3323 29.4008C55.6357 29.6894 54.8692 29.7649 54.1297 29.6179C53.3901 29.4709 52.7108 29.1078 52.1776 28.5747ZM72.8223 43.8247C72.1072 44.5398 71.1374 44.9415 70.1261 44.9415C69.1149 44.9415 68.145 44.5398 67.43 43.8247C66.7149 43.1097 66.3132 42.1398 66.3132 41.1286C66.3132 40.1173 66.7149 39.1475 67.43 38.4324C68.145 37.7174 69.1149 37.3157 70.1261 37.3157C71.1374 37.3157 72.1072 37.7174 72.8223 38.4324C73.5374 39.1475 73.9391 40.1173 73.9391 41.1286C73.9391 42.1398 73.5374 43.1097 72.8223 43.8247ZM86.166 19.0435C85.8115 19.3974 85.3907 19.678 84.9278 19.8693C84.4648 20.0606 83.9687 20.1588 83.4677 20.1584C82.9668 20.1579 82.4708 20.0588 82.0082 19.8667C81.5455 19.6746 81.1253 19.3933 80.7713 19.0387C80.4174 18.6842 80.1368 18.2634 79.9455 17.8004C79.7542 17.3375 79.656 16.8413 79.6565 16.3404C79.6569 15.8395 79.756 15.3435 79.9481 14.8809C80.1402 14.4182 80.4216 13.9979 80.7761 13.644C81.1303 13.29 81.5508 13.0091 82.0136 12.8176C82.4763 12.626 82.9723 12.5275 83.4731 12.5276C83.9739 12.5277 84.4698 12.6265 84.9325 12.8182C85.3952 13.01 85.8155 13.291 86.1696 13.6452C86.5237 13.9994 86.8045 14.4199 86.9961 14.8827C87.1876 15.3454 87.2862 15.8414 87.286 16.3422C87.2859 16.8431 87.1872 17.339 86.9954 17.8016C86.8037 18.2643 86.5226 18.6847 86.1684 19.0387L86.166 19.0435Z" fill="white"/>
<path d="M29.7186 83.14C28.9253 83.14 28.1926 83.042 27.5206 82.846C26.858 82.6407 26.2886 82.3607 25.8126 82.006L26.3726 80.592C26.69 80.816 27.0213 81.0073 27.3666 81.166C27.712 81.3153 28.0806 81.432 28.4726 81.516C28.8646 81.5907 29.28 81.628 29.7186 81.628C30.456 81.628 30.988 81.5067 31.3146 81.264C31.6413 81.0213 31.8046 80.704 31.8046 80.312C31.8046 79.9667 31.6926 79.7053 31.4686 79.528C31.2446 79.3413 30.8433 79.1873 30.2646 79.066L28.6826 78.744C27.7773 78.5573 27.1006 78.2447 26.6526 77.806C26.2046 77.3673 25.9806 76.7793 25.9806 76.042C25.9806 75.426 26.144 74.8893 26.4706 74.432C26.7973 73.9747 27.2546 73.62 27.8426 73.368C28.4306 73.116 29.1166 72.99 29.9006 72.99C30.6006 72.99 31.2493 73.0927 31.8466 73.298C32.444 73.494 32.9433 73.7787 33.3446 74.152L32.7846 75.496C32.3833 75.16 31.9446 74.9127 31.4686 74.754C30.9926 74.586 30.4606 74.502 29.8726 74.502C29.21 74.502 28.692 74.6327 28.3186 74.894C27.9546 75.146 27.7726 75.496 27.7726 75.944C27.7726 76.2893 27.8846 76.5647 28.1086 76.77C28.342 76.9753 28.734 77.134 29.2846 77.246L30.8526 77.554C31.786 77.7407 32.4766 78.0487 32.9246 78.478C33.3726 78.898 33.5966 79.4673 33.5966 80.186C33.5966 80.774 33.438 81.292 33.1206 81.74C32.8033 82.1787 32.3553 82.524 31.7766 82.776C31.198 83.0187 30.512 83.14 29.7186 83.14ZM38.5741 83.14C37.3887 83.14 36.4601 82.8133 35.7881 82.16C35.1161 81.5067 34.7801 80.6107 34.7801 79.472C34.7801 78.7347 34.9247 78.0907 35.2141 77.54C35.5034 76.9893 35.9047 76.56 36.4181 76.252C36.9407 75.944 37.5474 75.79 38.2381 75.79C38.9194 75.79 39.4887 75.9347 39.9461 76.224C40.4034 76.5133 40.7487 76.9193 40.9821 77.442C41.2247 77.9647 41.3461 78.576 41.3461 79.276V79.738H36.1941V78.814H40.1001L39.8621 79.01C39.8621 78.3567 39.7221 77.8573 39.4421 77.512C39.1714 77.1667 38.7747 76.994 38.2521 76.994C37.6734 76.994 37.2254 77.1993 36.9081 77.61C36.6001 78.0207 36.4461 78.5947 36.4461 79.332V79.514C36.4461 80.2793 36.6327 80.8533 37.0061 81.236C37.3887 81.6093 37.9254 81.796 38.6161 81.796C39.0174 81.796 39.3907 81.7447 39.7361 81.642C40.0907 81.53 40.4267 81.3527 40.7441 81.11L41.2621 82.286C40.9261 82.5567 40.5247 82.7667 40.0581 82.916C39.5914 83.0653 39.0967 83.14 38.5741 83.14ZM46.104 86.136C45.4506 86.136 44.858 86.066 44.326 85.926C43.8033 85.786 43.3366 85.5713 42.926 85.282L43.304 84.022C43.5746 84.1993 43.8546 84.344 44.144 84.456C44.4333 84.568 44.732 84.652 45.04 84.708C45.348 84.764 45.6606 84.792 45.978 84.792C46.6313 84.792 47.1166 84.6287 47.434 84.302C47.7606 83.9847 47.924 83.5273 47.924 82.93V81.236H48.064C47.9146 81.7213 47.6113 82.1087 47.154 82.398C46.706 82.6873 46.188 82.832 45.6 82.832C44.9653 82.832 44.41 82.692 43.934 82.412C43.4673 82.1227 43.1033 81.712 42.842 81.18C42.5806 80.648 42.45 80.0227 42.45 79.304C42.45 78.5853 42.5806 77.9647 42.842 77.442C43.1033 76.91 43.4673 76.504 43.934 76.224C44.41 75.9347 44.9653 75.79 45.6 75.79C46.1973 75.79 46.7153 75.9347 47.154 76.224C47.602 76.504 47.9006 76.8867 48.05 77.372L47.924 77.288L48.064 75.93H49.758C49.7206 76.2193 49.6926 76.5133 49.674 76.812C49.6553 77.1107 49.646 77.4047 49.646 77.694V82.72C49.646 83.8307 49.3426 84.6753 48.736 85.254C48.1386 85.842 47.2613 86.136 46.104 86.136ZM46.076 81.488C46.636 81.488 47.0793 81.3013 47.406 80.928C47.742 80.5453 47.91 80.004 47.91 79.304C47.91 78.604 47.742 78.0673 47.406 77.694C47.0793 77.3207 46.636 77.134 46.076 77.134C45.5066 77.134 45.054 77.3207 44.718 77.694C44.382 78.0673 44.214 78.604 44.214 79.304C44.214 80.004 44.382 80.5453 44.718 80.928C45.054 81.3013 45.5066 81.488 46.076 81.488ZM51.537 83V77.694C51.537 77.4047 51.5276 77.1107 51.509 76.812C51.4903 76.5133 51.4623 76.2193 51.425 75.93H53.119L53.259 77.33H53.091C53.287 76.8447 53.5856 76.4667 53.987 76.196C54.3976 75.9253 54.883 75.79 55.443 75.79C56.003 75.79 56.465 75.9253 56.829 76.196C57.2023 76.4573 57.4636 76.868 57.613 77.428H57.389C57.585 76.924 57.907 76.5273 58.355 76.238C58.803 75.9393 59.3163 75.79 59.895 75.79C60.6883 75.79 61.281 76.0233 61.673 76.49C62.065 76.9567 62.261 77.6847 62.261 78.674V83H60.511V78.744C60.511 78.184 60.4176 77.7827 60.231 77.54C60.0443 77.288 59.7456 77.162 59.335 77.162C58.8496 77.162 58.467 77.3347 58.187 77.68C57.907 78.016 57.767 78.4733 57.767 79.052V83H56.017V78.744C56.017 78.184 55.9236 77.7827 55.737 77.54C55.5503 77.288 55.2516 77.162 54.841 77.162C54.3556 77.162 53.973 77.3347 53.693 77.68C53.4223 78.016 53.287 78.4733 53.287 79.052V83H51.537ZM67.5448 83.14C66.3594 83.14 65.4308 82.8133 64.7588 82.16C64.0868 81.5067 63.7508 80.6107 63.7508 79.472C63.7508 78.7347 63.8954 78.0907 64.1848 77.54C64.4741 76.9893 64.8754 76.56 65.3888 76.252C65.9114 75.944 66.5181 75.79 67.2088 75.79C67.8901 75.79 68.4594 75.9347 68.9168 76.224C69.3741 76.5133 69.7194 76.9193 69.9528 77.442C70.1954 77.9647 70.3168 78.576 70.3168 79.276V79.738H65.1648V78.814H69.0708L68.8328 79.01C68.8328 78.3567 68.6928 77.8573 68.4128 77.512C68.1421 77.1667 67.7454 76.994 67.2228 76.994C66.6441 76.994 66.1961 77.1993 65.8788 77.61C65.5708 78.0207 65.4168 78.5947 65.4168 79.332V79.514C65.4168 80.2793 65.6034 80.8533 65.9768 81.236C66.3594 81.6093 66.8961 81.796 67.5868 81.796C67.9881 81.796 68.3614 81.7447 68.7068 81.642C69.0614 81.53 69.3974 81.3527 69.7148 81.11L70.2328 82.286C69.8968 82.5567 69.4954 82.7667 69.0288 82.916C68.5621 83.0653 68.0674 83.14 67.5448 83.14ZM71.7987 83V77.694C71.7987 77.4047 71.7893 77.1107 71.7707 76.812C71.752 76.5133 71.724 76.2193 71.6867 75.93H73.3807L73.5207 77.33H73.3527C73.5767 76.8353 73.908 76.4573 74.3467 76.196C74.7853 75.9253 75.294 75.79 75.8727 75.79C76.7033 75.79 77.3287 76.0233 77.7487 76.49C78.1687 76.9567 78.3787 77.6847 78.3787 78.674V83H76.6287V78.758C76.6287 78.1887 76.5167 77.7827 76.2927 77.54C76.078 77.288 75.7513 77.162 75.3127 77.162C74.7713 77.162 74.342 77.33 74.0247 77.666C73.7073 78.002 73.5487 78.45 73.5487 79.01V83H71.7987ZM83.2582 83.14C82.4182 83.14 81.7836 82.9207 81.3542 82.482C80.9249 82.0433 80.7102 81.3853 80.7102 80.508V77.246H79.3522V75.93H80.7102V74.124L82.4602 73.676V75.93H84.3502V77.246H82.4602V80.396C82.4602 80.8813 82.5536 81.222 82.7402 81.418C82.9269 81.614 83.1836 81.712 83.5102 81.712C83.6876 81.712 83.8369 81.698 83.9582 81.67C84.0889 81.642 84.2149 81.6047 84.3362 81.558V82.944C84.1776 83.0093 84.0002 83.056 83.8042 83.084C83.6176 83.1213 83.4356 83.14 83.2582 83.14ZM88.6626 83.14C87.9346 83.14 87.3046 82.9907 86.7726 82.692C86.2406 82.3933 85.8252 81.9687 85.5266 81.418C85.2372 80.8673 85.0926 80.214 85.0926 79.458C85.0926 78.702 85.2372 78.0533 85.5266 77.512C85.8252 76.9613 86.2406 76.5367 86.7726 76.238C87.3046 75.9393 87.9346 75.79 88.6626 75.79C89.3906 75.79 90.0206 75.9393 90.5526 76.238C91.0939 76.5367 91.5092 76.9613 91.7986 77.512C92.0972 78.0533 92.2466 78.702 92.2466 79.458C92.2466 80.214 92.0972 80.8673 91.7986 81.418C91.5092 81.9687 91.0939 82.3933 90.5526 82.692C90.0206 82.9907 89.3906 83.14 88.6626 83.14ZM88.6626 81.796C89.2132 81.796 89.6519 81.6047 89.9786 81.222C90.3052 80.83 90.4686 80.242 90.4686 79.458C90.4686 78.674 90.3052 78.0907 89.9786 77.708C89.6519 77.3253 89.2132 77.134 88.6626 77.134C88.1119 77.134 87.6732 77.3253 87.3466 77.708C87.0199 78.0907 86.8566 78.674 86.8566 79.458C86.8566 80.242 87.0199 80.83 87.3466 81.222C87.6732 81.6047 88.1119 81.796 88.6626 81.796ZM96.2757 83.14C95.669 83.14 95.109 83.07 94.5957 82.93C94.0917 82.7807 93.667 82.5753 93.3217 82.314L93.8117 81.138C94.1664 81.3807 94.5584 81.5673 94.9877 81.698C95.417 81.8287 95.851 81.894 96.2897 81.894C96.7564 81.894 97.1017 81.8147 97.3257 81.656C97.559 81.4973 97.6757 81.2827 97.6757 81.012C97.6757 80.7973 97.601 80.6293 97.4517 80.508C97.3117 80.3773 97.083 80.2793 96.7657 80.214L95.3657 79.948C94.7684 79.8173 94.311 79.5933 93.9937 79.276C93.6857 78.9587 93.5317 78.5433 93.5317 78.03C93.5317 77.5913 93.6484 77.204 93.8817 76.868C94.1244 76.532 94.465 76.2707 94.9037 76.084C95.3517 75.888 95.8744 75.79 96.4717 75.79C96.9944 75.79 97.4844 75.86 97.9417 76C98.4084 76.14 98.8004 76.35 99.1177 76.63L98.6137 77.764C98.3244 77.5307 97.993 77.3487 97.6197 77.218C97.2464 77.0873 96.8824 77.022 96.5277 77.022C96.0424 77.022 95.6877 77.1107 95.4637 77.288C95.2397 77.456 95.1277 77.6753 95.1277 77.946C95.1277 78.1513 95.193 78.324 95.3237 78.464C95.4637 78.5947 95.6784 78.6927 95.9677 78.758L97.3677 79.024C97.993 79.1453 98.4644 79.36 98.7817 79.668C99.1084 79.9667 99.2717 80.3773 99.2717 80.9C99.2717 81.3667 99.1457 81.768 98.8937 82.104C98.6417 82.44 98.2917 82.6967 97.8437 82.874C97.3957 83.0513 96.873 83.14 96.2757 83.14Z" fill="white"/>
</svg>
