<svg width="125" height="108" viewBox="0 0 125 108" fill="none" xmlns="http://www.w3.org/2000/svg">
<rect width="125" height="108" rx="6" fill="#0077FF"/>
<path d="M62.5 56.7813C62.5 56.7813 40.5018 46.5383 40.5018 35.8125V15.7969L60.2125 7.67625C60.9373 7.37424 61.7147 7.21875 62.5 7.21875M62.5 56.7813C62.5 56.7813 84.4981 46.5383 84.4981 35.8125V15.7969L64.7875 7.67625C64.0626 7.37424 63.2852 7.21875 62.5 7.21875M62.5 56.7813V7.21875M40.5018 32H84.4981" stroke="white" stroke-width="3" stroke-linecap="round" stroke-linejoin="round"/>
<path d="M25.8986 81.5V71.63H30.2806C31.3633 71.63 32.1893 71.8913 32.7586 72.414C33.328 72.9367 33.6126 73.6553 33.6126 74.57C33.6126 75.4753 33.328 76.194 32.7586 76.726C32.1893 77.258 31.3633 77.524 30.2806 77.524H27.7046V81.5H25.8986ZM27.7046 76.096H30.0706C30.668 76.096 31.116 75.9653 31.4146 75.704C31.7133 75.4333 31.8626 75.0553 31.8626 74.57C31.8626 74.0847 31.7133 73.7113 31.4146 73.45C31.116 73.1793 30.668 73.044 30.0706 73.044H27.7046V76.096ZM38.1571 81.64C36.9717 81.64 36.0431 81.3133 35.3711 80.66C34.6991 80.0067 34.3631 79.1107 34.3631 77.972C34.3631 77.2347 34.5077 76.5907 34.7971 76.04C35.0864 75.4893 35.4877 75.06 36.0011 74.752C36.5237 74.444 37.1304 74.29 37.8211 74.29C38.5024 74.29 39.0717 74.4347 39.5291 74.724C39.9864 75.0133 40.3317 75.4193 40.5651 75.942C40.8077 76.4647 40.9291 77.076 40.9291 77.776V78.238H35.7771V77.314H39.6831L39.4451 77.51C39.4451 76.8567 39.3051 76.3573 39.0251 76.012C38.7544 75.6667 38.3577 75.494 37.8351 75.494C37.2564 75.494 36.8084 75.6993 36.4911 76.11C36.1831 76.5207 36.0291 77.0947 36.0291 77.832V78.014C36.0291 78.7793 36.2157 79.3533 36.5891 79.736C36.9717 80.1093 37.5084 80.296 38.1991 80.296C38.6004 80.296 38.9737 80.2447 39.3191 80.142C39.6737 80.03 40.0097 79.8527 40.3271 79.61L40.8451 80.786C40.5091 81.0567 40.1077 81.2667 39.6411 81.416C39.1744 81.5653 38.6797 81.64 38.1571 81.64ZM42.397 81.5V76.236C42.397 75.9373 42.3877 75.634 42.369 75.326C42.3597 75.018 42.3363 74.7193 42.299 74.43H43.993L44.189 76.362H43.909C44.0023 75.8953 44.1563 75.508 44.371 75.2C44.595 74.892 44.8657 74.6633 45.183 74.514C45.5003 74.3647 45.8457 74.29 46.219 74.29C46.387 74.29 46.5223 74.2993 46.625 74.318C46.7277 74.3273 46.8303 74.3507 46.933 74.388L46.919 75.928C46.7417 75.8533 46.5877 75.8067 46.457 75.788C46.3357 75.7693 46.1817 75.76 45.995 75.76C45.5937 75.76 45.253 75.844 44.973 76.012C44.7023 76.18 44.497 76.4133 44.357 76.712C44.2263 77.0107 44.161 77.3513 44.161 77.734V81.5H42.397ZM47.9071 81.5V76.194C47.9071 75.9047 47.8977 75.6107 47.8791 75.312C47.8604 75.0133 47.8324 74.7193 47.7951 74.43H49.4891L49.6291 75.83H49.4611C49.6571 75.3447 49.9557 74.9667 50.3571 74.696C50.7677 74.4253 51.2531 74.29 51.8131 74.29C52.3731 74.29 52.8351 74.4253 53.1991 74.696C53.5724 74.9573 53.8337 75.368 53.9831 75.928H53.7591C53.9551 75.424 54.2771 75.0273 54.7251 74.738C55.1731 74.4393 55.6864 74.29 56.2651 74.29C57.0584 74.29 57.6511 74.5233 58.0431 74.99C58.4351 75.4567 58.6311 76.1847 58.6311 77.174V81.5H56.8811V77.244C56.8811 76.684 56.7877 76.2827 56.6011 76.04C56.4144 75.788 56.1157 75.662 55.7051 75.662C55.2197 75.662 54.8371 75.8347 54.5571 76.18C54.2771 76.516 54.1371 76.9733 54.1371 77.552V81.5H52.3871V77.244C52.3871 76.684 52.2937 76.2827 52.1071 76.04C51.9204 75.788 51.6217 75.662 51.2111 75.662C50.7257 75.662 50.3431 75.8347 50.0631 76.18C49.7924 76.516 49.6571 76.9733 49.6571 77.552V81.5H47.9071ZM60.4989 81.5V74.43H62.2489V81.5H60.4989ZM60.4009 73.1V71.392H62.3469V73.1H60.4009ZM66.6693 81.64C66.0626 81.64 65.5026 81.57 64.9893 81.43C64.4853 81.2807 64.0606 81.0753 63.7153 80.814L64.2053 79.638C64.5599 79.8807 64.9519 80.0673 65.3813 80.198C65.8106 80.3287 66.2446 80.394 66.6833 80.394C67.1499 80.394 67.4953 80.3147 67.7193 80.156C67.9526 79.9973 68.0693 79.7827 68.0693 79.512C68.0693 79.2973 67.9946 79.1293 67.8453 79.008C67.7053 78.8773 67.4766 78.7793 67.1593 78.714L65.7593 78.448C65.1619 78.3173 64.7046 78.0933 64.3873 77.776C64.0793 77.4587 63.9253 77.0433 63.9253 76.53C63.9253 76.0913 64.0419 75.704 64.2753 75.368C64.5179 75.032 64.8586 74.7707 65.2973 74.584C65.7453 74.388 66.2679 74.29 66.8653 74.29C67.3879 74.29 67.8779 74.36 68.3353 74.5C68.8019 74.64 69.1939 74.85 69.5113 75.13L69.0073 76.264C68.7179 76.0307 68.3866 75.8487 68.0133 75.718C67.6399 75.5873 67.2759 75.522 66.9213 75.522C66.4359 75.522 66.0813 75.6107 65.8573 75.788C65.6333 75.956 65.5213 76.1753 65.5213 76.446C65.5213 76.6513 65.5866 76.824 65.7173 76.964C65.8573 77.0947 66.0719 77.1927 66.3613 77.258L67.7613 77.524C68.3866 77.6453 68.8579 77.86 69.1753 78.168C69.5019 78.4667 69.6653 78.8773 69.6653 79.4C69.6653 79.8667 69.5393 80.268 69.2873 80.604C69.0353 80.94 68.6853 81.1967 68.2373 81.374C67.7893 81.5513 67.2666 81.64 66.6693 81.64ZM73.6829 81.64C73.0763 81.64 72.5163 81.57 72.0029 81.43C71.4989 81.2807 71.0743 81.0753 70.7289 80.814L71.2189 79.638C71.5736 79.8807 71.9656 80.0673 72.3949 80.198C72.8243 80.3287 73.2583 80.394 73.6969 80.394C74.1636 80.394 74.5089 80.3147 74.7329 80.156C74.9663 79.9973 75.0829 79.7827 75.0829 79.512C75.0829 79.2973 75.0083 79.1293 74.8589 79.008C74.7189 78.8773 74.4903 78.7793 74.1729 78.714L72.7729 78.448C72.1756 78.3173 71.7183 78.0933 71.4009 77.776C71.0929 77.4587 70.9389 77.0433 70.9389 76.53C70.9389 76.0913 71.0556 75.704 71.2889 75.368C71.5316 75.032 71.8723 74.7707 72.3109 74.584C72.7589 74.388 73.2816 74.29 73.8789 74.29C74.4016 74.29 74.8916 74.36 75.3489 74.5C75.8156 74.64 76.2076 74.85 76.5249 75.13L76.0209 76.264C75.7316 76.0307 75.4003 75.8487 75.0269 75.718C74.6536 75.5873 74.2896 75.522 73.9349 75.522C73.4496 75.522 73.0949 75.6107 72.8709 75.788C72.6469 75.956 72.5349 76.1753 72.5349 76.446C72.5349 76.6513 72.6003 76.824 72.7309 76.964C72.8709 77.0947 73.0856 77.1927 73.3749 77.258L74.7749 77.524C75.4003 77.6453 75.8716 77.86 76.1889 78.168C76.5156 78.4667 76.6789 78.8773 76.6789 79.4C76.6789 79.8667 76.5529 80.268 76.3009 80.604C76.0489 80.94 75.6989 81.1967 75.2509 81.374C74.8029 81.5513 74.2803 81.64 73.6829 81.64ZM81.3686 81.64C80.6406 81.64 80.0106 81.4907 79.4786 81.192C78.9466 80.8933 78.5313 80.4687 78.2326 79.918C77.9433 79.3673 77.7986 78.714 77.7986 77.958C77.7986 77.202 77.9433 76.5533 78.2326 76.012C78.5313 75.4613 78.9466 75.0367 79.4786 74.738C80.0106 74.4393 80.6406 74.29 81.3686 74.29C82.0966 74.29 82.7266 74.4393 83.2586 74.738C83.7999 75.0367 84.2153 75.4613 84.5046 76.012C84.8033 76.5533 84.9526 77.202 84.9526 77.958C84.9526 78.714 84.8033 79.3673 84.5046 79.918C84.2153 80.4687 83.7999 80.8933 83.2586 81.192C82.7266 81.4907 82.0966 81.64 81.3686 81.64ZM81.3686 80.296C81.9193 80.296 82.3579 80.1047 82.6846 79.722C83.0113 79.33 83.1746 78.742 83.1746 77.958C83.1746 77.174 83.0113 76.5907 82.6846 76.208C82.3579 75.8253 81.9193 75.634 81.3686 75.634C80.8179 75.634 80.3793 75.8253 80.0526 76.208C79.7259 76.5907 79.5626 77.174 79.5626 77.958C79.5626 78.742 79.7259 79.33 80.0526 79.722C80.3793 80.1047 80.8179 80.296 81.3686 80.296ZM79.5346 73.324L78.6666 73.268C78.7133 72.6053 78.8906 72.0967 79.1986 71.742C79.5066 71.378 79.8893 71.196 80.3466 71.196C80.5519 71.196 80.7433 71.238 80.9206 71.322C81.0979 71.406 81.2986 71.532 81.5226 71.7C81.7186 71.8493 81.8773 71.9567 81.9986 72.022C82.1293 72.0873 82.2553 72.12 82.3766 72.12C82.8433 72.12 83.1279 71.7933 83.2306 71.14L84.0986 71.196C84.0613 71.8587 83.8886 72.372 83.5806 72.736C83.2726 73.0907 82.8899 73.268 82.4326 73.268C82.2273 73.268 82.0313 73.226 81.8446 73.142C81.6673 73.058 81.4619 72.9273 81.2286 72.75C81.0513 72.6007 80.8973 72.498 80.7666 72.442C80.6453 72.3767 80.5193 72.344 80.3886 72.344C80.1366 72.344 79.9406 72.4327 79.8006 72.61C79.6699 72.778 79.5813 73.016 79.5346 73.324ZM89.8778 81.64C88.6924 81.64 87.7638 81.3133 87.0918 80.66C86.4198 80.0067 86.0838 79.1107 86.0838 77.972C86.0838 77.2347 86.2284 76.5907 86.5178 76.04C86.8071 75.4893 87.2084 75.06 87.7218 74.752C88.2444 74.444 88.8511 74.29 89.5418 74.29C90.2231 74.29 90.7924 74.4347 91.2498 74.724C91.7071 75.0133 92.0524 75.4193 92.2858 75.942C92.5284 76.4647 92.6498 77.076 92.6498 77.776V78.238H87.4978V77.314H91.4038L91.1658 77.51C91.1658 76.8567 91.0258 76.3573 90.7458 76.012C90.4751 75.6667 90.0784 75.494 89.5558 75.494C88.9771 75.494 88.5291 75.6993 88.2118 76.11C87.9038 76.5207 87.7498 77.0947 87.7498 77.832V78.014C87.7498 78.7793 87.9364 79.3533 88.3098 79.736C88.6924 80.1093 89.2291 80.296 89.9198 80.296C90.3211 80.296 90.6944 80.2447 91.0398 80.142C91.3944 80.03 91.7304 79.8527 92.0478 79.61L92.5658 80.786C92.2298 81.0567 91.8284 81.2667 91.3618 81.416C90.8951 81.5653 90.4004 81.64 89.8778 81.64ZM96.6517 81.64C96.045 81.64 95.485 81.57 94.9717 81.43C94.4677 81.2807 94.043 81.0753 93.6977 80.814L94.1877 79.638C94.5424 79.8807 94.9344 80.0673 95.3637 80.198C95.793 80.3287 96.227 80.394 96.6657 80.394C97.1324 80.394 97.4777 80.3147 97.7017 80.156C97.935 79.9973 98.0517 79.7827 98.0517 79.512C98.0517 79.2973 97.977 79.1293 97.8277 79.008C97.6877 78.8773 97.459 78.7793 97.1417 78.714L95.7417 78.448C95.1444 78.3173 94.687 78.0933 94.3697 77.776C94.0617 77.4587 93.9077 77.0433 93.9077 76.53C93.9077 76.0913 94.0244 75.704 94.2577 75.368C94.5004 75.032 94.841 74.7707 95.2797 74.584C95.7277 74.388 96.2504 74.29 96.8477 74.29C97.3704 74.29 97.8604 74.36 98.3177 74.5C98.7844 74.64 99.1764 74.85 99.4937 75.13L98.9897 76.264C98.7004 76.0307 98.369 75.8487 97.9957 75.718C97.6224 75.5873 97.2584 75.522 96.9037 75.522C96.4184 75.522 96.0637 75.6107 95.8397 75.788C95.6157 75.956 95.5037 76.1753 95.5037 76.446C95.5037 76.6513 95.569 76.824 95.6997 76.964C95.8397 77.0947 96.0544 77.1927 96.3437 77.258L97.7437 77.524C98.369 77.6453 98.8404 77.86 99.1577 78.168C99.4844 78.4667 99.6477 78.8773 99.6477 79.4C99.6477 79.8667 99.5217 80.268 99.2697 80.604C99.0177 80.94 98.6677 81.1967 98.2197 81.374C97.7717 81.5513 97.249 81.64 96.6517 81.64Z" fill="white"/>
</svg>
